<?xml version="1.0" encoding="UTF-8"?>
<svg version="1.1" xmlns="http://www.w3.org/2000/svg" width="800" height="800">
<path d="M0 0 C0.83103745 -0.00315216 1.66207489 -0.00630432 2.51829529 -0.009552 C3.41726028 -0.00752777 4.31622528 -0.00550354 5.24243164 -0.00341797 C6.6258651 -0.00485306 6.6258651 -0.00485306 8.0372467 -0.00631714 C9.9900011 -0.00699836 11.94275775 -0.00514808 13.89550781 -0.00097656 C16.8868519 0.00436642 19.87804541 -0.00092036 22.86938477 -0.00732422 C24.76456739 -0.00666331 26.65974992 -0.00538188 28.55493164 -0.00341797 C29.45187241 -0.0054422 30.34881317 -0.00746643 31.27293396 -0.009552 C32.10712357 -0.00639984 32.94131317 -0.00324768 33.80078125 0 C34.53421249 0.00079559 35.26764374 0.00159119 36.02330017 0.00241089 C37.96508789 0.12939453 37.96508789 0.12939453 40.96508789 1.12939453 C42.79605905 1.20524604 44.62741152 1.27615313 46.45947266 1.31811523 C85.99334056 2.36319168 126.94986495 14.33243613 162.96508789 30.12939453 C164.42076742 30.7532083 165.8765012 31.37689546 167.33227539 32.00048828 C174.71066034 35.18936718 181.88384958 38.38866476 188.68774414 42.70361328 C191.1870306 44.26834666 193.74305176 45.67075738 196.34008789 47.06689453 C198.21558671 48.08681113 200.09058551 49.10764774 201.96508789 50.12939453 C202.84293945 50.60505859 203.72079102 51.08072266 204.62524414 51.57080078 C219.62708011 59.98955261 233.46832643 70.50711965 246.96508789 81.12939453 C247.8274707 81.78681641 248.68985352 82.44423828 249.57836914 83.12158203 C250.36598633 83.72228516 251.15360352 84.32298828 251.96508789 84.94189453 C252.62508789 85.44333984 253.28508789 85.94478516 253.96508789 86.46142578 C256.45722757 88.53983133 258.67851082 90.82629595 260.96508789 93.12939453 C263.3646299 95.39786615 265.79182058 97.63631967 268.21508789 99.87939453 C276.35874892 107.46527056 284.26323417 114.90389351 291.04321289 123.77001953 C292.95999288 126.20674462 292.95999288 126.20674462 295.35180664 128.50439453 C298.3085658 131.4744127 300.91960507 134.60431396 303.52758789 137.87939453 C304.04135986 138.52263672 304.55513184 139.16587891 305.08447266 139.82861328 C310.55461552 146.75541123 315.61507991 153.96083254 320.63183594 161.21948242 C321.94503148 163.10066329 323.28819606 164.9572115 324.63696289 166.81298828 C326.56924172 169.51123266 328.23365886 172.24863405 329.77758789 175.19189453 C332.05811957 179.46716236 334.4171293 183.68307682 336.84008789 187.87939453 C338.22012061 190.29321638 339.59300407 192.71104812 340.96508789 195.12939453 C341.29798828 195.71172852 341.63088867 196.2940625 341.97387695 196.89404297 C347.64579858 206.87950813 351.96372851 217.19652415 356.09399414 227.90136719 C357.22462381 230.79321875 358.43273962 233.64918718 359.65258789 236.50439453 C382.95128943 292.54512515 388.92327845 358.34698705 379.96508789 418.12939453 C379.82586914 419.07959473 379.68665039 420.02979492 379.54321289 421.00878906 C375.6863102 446.43131317 369.72617931 473.48823689 359.30102539 497.09423828 C358.28221846 499.40889613 357.31521101 501.72282077 356.37915039 504.07080078 C352.68007056 513.33072784 348.59703299 522.2819106 343.99780273 531.12890625 C342.97457059 533.11102545 341.97806958 535.10486776 340.98461914 537.10205078 C328.99125814 560.86280677 313.07785547 582.80929215 295.96508789 603.12939453 C295.43850586 603.75531494 294.91192383 604.38123535 294.36938477 605.02612305 C289.47221022 610.73781886 284.18339999 616.02488454 278.84008789 621.31689453 C277.9596582 622.1928125 277.07922852 623.06873047 276.17211914 623.97119141 C274.49149085 625.6429476 272.80959872 627.31343456 271.1262207 628.98242188 C269.43172483 630.66581508 267.74633989 632.35707699 266.06665039 634.05517578 C263.74658744 636.34505204 261.31457014 638.42416399 258.80883789 640.50439453 C257.36628136 641.77580029 255.99078811 643.12337713 254.64477539 644.49658203 C251.78309038 647.30820841 248.75539983 649.80092928 245.59008789 652.25439453 C244.99010986 652.72232422 244.39013184 653.19025391 243.77197266 653.67236328 C239.19569369 657.22124189 234.56533054 660.69508966 229.90258789 664.12939453 C229.28399902 664.58588379 228.66541016 665.04237305 228.02807617 665.51269531 C224.75943202 667.90004793 221.4547112 670.07170066 217.96508789 672.12939453 C215.1278213 674.03581005 212.30688286 675.96468319 209.48852539 677.89892578 C204.82530398 680.95063938 199.87778789 683.50761855 194.96508789 686.12939453 C194.04727539 686.62141357 193.12946289 687.11343262 192.18383789 687.62036133 C175.63970647 696.4496507 159.21737507 704.29595309 141.4465332 710.29199219 C138.6557186 711.23379601 135.86926324 712.18804775 133.08227539 713.14111328 C114.86880108 719.33323555 96.94414492 723.96068252 77.96508789 727.12939453 C77.085625 727.27795898 76.20616211 727.42652344 75.30004883 727.57958984 C65.6588897 729.18826536 56.11646306 730.44897325 46.34277344 730.83911133 C42.63615329 730.97394813 42.63615329 730.97394813 38.99838257 731.63449097 C35.47876773 732.4911646 31.85792527 732.27117309 28.25415039 732.26220703 C27.40839447 732.26316376 26.56263855 732.26412048 25.69125366 732.2651062 C23.90427577 732.26578581 22.11729539 732.26394681 20.33032227 732.25976562 C17.60695793 732.2544276 14.88375952 732.25971117 12.16040039 732.26611328 C10.4208167 732.2654522 8.6812331 732.26417042 6.94165039 732.26220703 C6.13208893 732.26423126 5.32252747 732.26625549 4.48843384 732.26834106 C0.19224556 732.25069515 -3.79812014 731.92400436 -8.03491211 731.12939453 C-9.70866317 730.97416827 -11.38477019 730.84247187 -13.06225586 730.73486328 C-41.53495009 728.74376578 -69.99924554 723.40773839 -97.03491211 714.12939453 C-97.69152832 713.90815918 -98.34814453 713.68692383 -99.0246582 713.45898438 C-114.93690926 708.08930917 -130.70282154 702.30846307 -145.39819336 694.12158203 C-148.53408044 692.37705869 -151.72845495 690.79172404 -154.95849609 689.22998047 C-165.94232638 683.90916754 -176.53268505 677.82088252 -186.03491211 670.12939453 C-187.04553711 669.57251953 -188.05616211 669.01564453 -189.09741211 668.44189453 C-194.21011135 665.60395997 -198.74852437 661.95448934 -203.3762207 658.39990234 C-205.08571661 657.09047981 -206.80367 655.79280131 -208.52319336 654.49658203 C-209.67318498 653.62451846 -210.82293076 652.75213059 -211.97241211 651.87939453 C-213.01268555 651.09048828 -214.05295898 650.30158203 -215.12475586 649.48876953 C-217.96361382 647.18719878 -220.46343886 644.72153878 -223.03491211 642.12939453 C-224.66440158 640.79665762 -226.31102668 639.48465207 -227.97241211 638.19189453 C-240.1159989 628.36528438 -250.90327313 616.79038605 -260.26147461 604.30517578 C-262.05607403 602.02716556 -262.05607403 602.02716556 -264.40600586 599.76611328 C-279.7255286 584.40106447 -291.25730337 564.82352013 -302.03491211 546.12939453 C-302.41486328 545.47632324 -302.79481445 544.82325195 -303.1862793 544.15039062 C-310.19775581 532.07250096 -316.21534569 519.84387904 -320.94384766 506.68408203 C-321.99837836 503.76850607 -323.11126086 500.97791213 -324.50756836 498.20751953 C-334.81192586 477.44068139 -340.1281057 452.85284279 -344.03491211 430.12939453 C-344.25123291 428.88681885 -344.25123291 428.88681885 -344.47192383 427.61914062 C-346.16935754 417.68466635 -347.37208602 407.85230004 -347.74462891 397.77539062 C-347.86138107 394.65792821 -348.04160104 392.10932773 -349.03491211 389.12939453 C-349.1263138 387.63693963 -349.16281111 386.14075818 -349.16430664 384.64550781 C-349.1674588 383.74091827 -349.17061096 382.83632874 -349.17385864 381.90432739 C-349.1708223 380.44179031 -349.1708223 380.44179031 -349.16772461 378.94970703 C-349.16868134 377.94479218 -349.16963806 376.93987732 -349.17062378 375.9045105 C-349.17130452 373.77781105 -349.1694576 371.65110952 -349.1652832 369.52441406 C-349.15994465 366.27420355 -349.16522603 363.02413193 -349.17163086 359.77392578 C-349.17096984 357.70751923 -349.16968819 355.64111276 -349.16772461 353.57470703 C-349.16974884 352.60373077 -349.17177307 351.63275452 -349.17385864 350.63235474 C-349.17070648 349.72146088 -349.16755432 348.81056702 -349.16430664 347.87207031 C-349.16351105 347.07503693 -349.16271545 346.27800354 -349.16189575 345.45681763 C-349.0243913 342.93656362 -348.54924689 340.5976184 -348.03491211 338.12939453 C-347.9320054 335.79684247 -347.85186713 333.46325526 -347.78491211 331.12939453 C-346.92956798 312.33304807 -342.8246733 293.29815112 -338.03491211 275.12939453 C-337.80658691 274.2517041 -337.57826172 273.37401367 -337.34301758 272.46972656 C-333.81436285 258.96888666 -329.76409931 246.08676006 -324.31616211 233.23095703 C-323.00389871 230.0543194 -321.79658571 226.85025184 -320.59741211 223.62939453 C-318.15812532 217.22913422 -315.18188797 211.20573621 -312.03491211 205.12939453 C-311.19935452 203.44299476 -310.36591831 201.75554174 -309.53491211 200.06689453 C-304.53561981 190.10005147 -298.95062966 180.57827148 -293.03491211 171.12939453 C-292.4922168 170.23607422 -291.94952148 169.34275391 -291.39038086 168.42236328 C-286.15137211 159.92012768 -280.11391666 152.03958643 -274.03491211 144.12939453 C-273.54909668 143.49501465 -273.06328125 142.86063477 -272.56274414 142.20703125 C-266.68481256 134.55107052 -260.59828101 127.2147234 -254.03491211 120.12939453 C-252.68975288 118.64357801 -251.34459578 117.15775957 -249.99951172 115.671875 C-242.28551919 107.18554298 -234.50709954 98.98671421 -225.35913086 92.01611328 C-222.94544271 90.12472839 -222.94544271 90.12472839 -220.62866211 87.71142578 C-217.85991512 84.95518819 -214.92627457 82.52238062 -211.84741211 80.12939453 C-211.24864258 79.66227051 -210.64987305 79.19514648 -210.03295898 78.71386719 C-195.36535509 67.36179965 -180.29386581 56.33919656 -163.86694336 47.65673828 C-161.2048217 46.22102853 -158.5999035 44.70653736 -155.99511719 43.16992188 C-149.61711778 39.42621805 -143.17101115 36.31108483 -136.32006836 33.48876953 C-133.43325546 32.29422626 -130.61137124 31.02097761 -127.78491211 29.69189453 C-122.89403349 27.44963712 -117.92109132 25.45826172 -112.90991211 23.50439453 C-112.16966797 23.21508057 -111.42942383 22.9257666 -110.66674805 22.62768555 C-105.50487818 20.63561581 -100.29352804 18.8475813 -95.03491211 17.12939453 C-94.10807617 16.81357422 -93.18124023 16.49775391 -92.22631836 16.17236328 C-65.92866132 7.61487904 -36.74623905 1.95005293 -9.04272461 1.27001953 C-5.75761376 1.11642993 -3.33798454 0.00362483 0 0 Z M-73.03491211 39.12939453 C-74.75198688 39.59950956 -76.46946562 40.06815059 -78.18725586 40.53564453 C-86.71642919 42.88029657 -95.07190843 45.24770734 -103.16772461 48.85986328 C-105.87817738 50.05999564 -108.61815527 51.14321966 -111.38452148 52.20678711 C-119.4993187 55.34574579 -127.24385599 59.04679265 -134.96264648 63.05419922 C-137.08116428 64.15339248 -139.20635641 65.23895178 -141.33178711 66.32470703 C-149.89071959 70.73452705 -158.11193953 75.45712258 -166.10522461 80.83251953 C-167.47679787 81.75430561 -168.85221424 82.67038456 -170.23022461 83.58251953 C-183.96635717 92.67868758 -196.93622212 102.5135366 -209.21850586 113.50439453 C-210.63385863 114.7706026 -212.06728636 116.01661664 -213.50756836 117.25439453 C-214.3415918 117.97626953 -215.17561523 118.69814453 -216.03491211 119.44189453 C-216.79803711 120.09802734 -217.56116211 120.75416016 -218.34741211 121.43017578 C-220.26979738 122.96677993 -220.26979738 122.96677993 -220.03491211 125.12939453 C-220.57631836 125.33435547 -221.11772461 125.53931641 -221.67553711 125.75048828 C-224.96836315 127.67493794 -227.27057621 130.37673203 -229.78491211 133.19189453 C-230.31713379 133.77970703 -230.84935547 134.36751953 -231.39770508 134.97314453 C-232.46331853 136.15192904 -233.52636312 137.33304149 -234.58666992 138.51660156 C-235.79651952 139.86391553 -237.01960205 141.19933148 -238.24584961 142.53173828 C-247.31839884 152.47451162 -255.12020725 163.47749021 -262.85693359 174.46875 C-263.67671415 175.62442821 -264.50501893 176.77408733 -265.33984375 177.91894531 C-267.77217965 181.26312434 -269.93839288 184.57477438 -271.84741211 188.25439453 C-273.97448072 192.2601938 -276.26063911 196.07118243 -278.72241211 199.87939453 C-291.80921108 220.93861127 -300.51219571 244.62212227 -308.03491211 268.12939453 C-308.36217285 269.13655518 -308.36217285 269.13655518 -308.69604492 270.1640625 C-310.66749073 276.23166289 -312.28353512 282.19850567 -313.49707031 288.45825195 C-314.01939096 291.05231017 -314.60695685 293.62146833 -315.21850586 296.19580078 C-323.56681132 332.18612672 -323.72830508 369.51863667 -320.03491211 406.12939453 C-319.96014648 406.90653809 -319.88538086 407.68368164 -319.80834961 408.484375 C-318.28625258 423.93436452 -314.83009109 439.09675562 -310.62524414 454.02148438 C-309.9462111 456.44612098 -309.28621706 458.87568852 -308.62475586 461.30517578 C-306.29387608 469.77300772 -303.95622377 478.09084865 -300.37084961 486.12939453 C-299.34619367 488.43037629 -298.38099058 490.7285032 -297.44897461 493.06689453 C-293.47207423 503.03259282 -289.0365978 512.63775383 -284.03491211 522.12939453 C-283.62756836 522.90686035 -283.22022461 523.68432617 -282.80053711 524.48535156 C-274.14586026 540.9051244 -264.20328925 556.30353716 -253.03491211 571.12939453 C-252.62998535 571.66967285 -252.22505859 572.20995117 -251.80786133 572.76660156 C-247.4823699 578.52585051 -243.19566879 584.07844118 -238.03491211 589.12939453 C-237.02162606 590.28454062 -236.02071989 591.45071131 -235.03491211 592.62939453 C-231.59860051 596.59027582 -227.97090031 600.34013213 -224.28491211 604.06689453 C-223.71772461 604.64697266 -223.15053711 605.22705078 -222.56616211 605.82470703 C-219.248072 609.15561355 -219.248072 609.15561355 -215.03491211 611.12939453 C-213.12505784 610.00274312 -213.12505784 610.00274312 -211.34741211 608.31689453 C-210.41348633 607.50285156 -210.41348633 607.50285156 -209.46069336 606.67236328 C-207.80869006 605.23472191 -207.80869006 605.23472191 -208.03491211 603.12939453 C-207.13772461 602.97470703 -207.13772461 602.97470703 -206.22241211 602.81689453 C-204.01001706 602.30687211 -204.01001706 602.30687211 -202.72241211 600.81689453 C-200.1807713 598.27525372 -197.18277778 596.85181159 -194.03491211 595.12939453 C-194.03491211 594.46939453 -194.03491211 593.80939453 -194.03491211 593.12939453 C-192.99463867 592.74654297 -192.99463867 592.74654297 -191.93334961 592.35595703 C-188.66759981 590.97395509 -185.72087229 589.29530596 -182.65991211 587.50439453 C-181.39492295 586.77802566 -180.12927799 586.05279789 -178.86303711 585.32861328 C-176.4902643 583.96908824 -174.12747229 582.59643646 -171.76928711 581.21142578 C-154.79655696 571.63959541 -136.07727395 565.20376474 -117.50952148 559.48071289 C-97.50033969 553.29602274 -79.19161226 545.46462471 -66.50756836 528.07470703 C-61.63586091 518.33129213 -61.59160644 508.53402389 -61.69873047 497.88818359 C-61.72223704 495.39794113 -61.71928276 492.90878199 -61.71264648 490.41845703 C-61.36952765 470.25602565 -61.36952765 470.25602565 -69.92944336 452.70361328 C-73.7211997 448.06768114 -77.13478571 442.82977373 -79.03491211 437.12939453 C-79.69491211 437.12939453 -80.35491211 437.12939453 -81.03491211 437.12939453 C-81.20071777 436.59934814 -81.36652344 436.06930176 -81.53735352 435.52319336 C-83.80265371 428.48670964 -86.6688079 421.78399371 -89.63720703 415.02050781 C-91.73305072 410.22531185 -93.62967687 405.45017563 -95.34741211 400.50439453 C-97.5421983 395.11302078 -101.18953326 391.88864361 -105.51269531 388.19897461 C-114.7039538 380.27989217 -120.28230694 369.26825325 -121.40161133 357.16381836 C-121.55144512 353.59260541 -121.55302902 350.02810745 -121.50146484 346.45458984 C-121.47217015 344.23607098 -121.48096908 342.01990454 -121.49389648 339.80126953 C-121.46444763 333.04353724 -121.22949621 328.21135093 -118.03491211 322.12939453 C-117.11718236 315.61788344 -118.38567268 308.99094202 -119.47241211 302.56689453 C-122.65501709 281.96059311 -122.31009926 260.93030554 -122.03491211 240.12939453 C-122.02766113 239.13665527 -122.02041016 238.14391602 -122.01293945 237.12109375 C-121.67009154 202.21452726 -111.42633996 164.89162362 -86.82006836 139.18798828 C-84.83322847 137.16204148 -84.83322847 137.16204148 -84.03491211 134.12939453 C-82.71716443 133.43242734 -81.38104038 132.76983258 -80.03491211 132.12939453 C-78.73509404 130.97369275 -77.46692456 129.78195106 -76.22241211 128.56689453 C-70.130076 123.03754658 -63.17780628 119.13014084 -56.03491211 115.12939453 C-55.16866211 114.63310547 -54.30241211 114.13681641 -53.40991211 113.62548828 C-47.15930603 110.25734075 -40.54860761 108.25273047 -33.76928711 106.24267578 C-31.51484557 105.57058808 -29.27041019 104.86121846 -27.05053711 104.08251953 C-23.42372296 102.93622076 -19.77415784 102.22005298 -16.03491211 101.56689453 C-15.03524414 101.37836914 -15.03524414 101.37836914 -14.01538086 101.18603516 C-1.85807331 99.03200386 10.52735043 98.92379482 22.84008789 98.94189453 C23.54064301 98.94216644 24.24119812 98.94243835 24.96298218 98.94271851 C35.08352419 98.9607628 45.00373353 99.15956476 54.96508789 101.12939453 C56.43268555 101.40396484 56.43268555 101.40396484 57.92993164 101.68408203 C68.59880182 104.1081451 76.68150961 108.75228313 82.65258789 117.87939453 C85.28072272 121.80349818 87.38824046 124.28619742 92.05102539 125.56298828 C96.32773202 126.40399849 100.62347713 126.7839422 104.96508789 127.12939453 C118.95092887 128.99837328 132.23826039 137.19769566 141.15258789 147.94189453 C144.84309256 152.77696923 148.01628647 157.81448897 150.96508789 163.12939453 C151.33375977 163.76103516 151.70243164 164.39267578 152.08227539 165.04345703 C155.53502985 171.33335857 157.19474094 178.21696101 158.96508789 185.12939453 C159.24481445 186.18771484 159.52454102 187.24603516 159.81274414 188.33642578 C168.99148401 226.48123919 164.30268187 269.92907896 154.54003906 307.40844727 C152.92218562 313.70518113 151.9291022 318.75352336 154.90258789 324.81689453 C160.75786886 336.96817654 159.00980954 352.68300862 155.36743164 365.39892578 C151.27787522 376.27782934 145.22562627 386.62631649 135.34008789 393.06689453 C130.49364263 396.4840932 128.60706935 398.48508327 126.96508789 404.12939453 C126.47008789 405.24314453 125.97508789 406.35689453 125.46508789 407.50439453 C124.42081351 410.02805763 123.53121066 412.41668818 122.71508789 415.00439453 C117.41412999 431.2403127 110.3250315 446.52613524 99.96508789 460.12939453 C97.80091593 463.37565247 97.71311508 464.27543948 97.70629883 468.0246582 C97.69684235 469.51717354 97.69684235 469.51717354 97.68719482 471.0398407 C97.69124329 472.11482315 97.69529175 473.1898056 97.69946289 474.29736328 C97.69754944 475.40614334 97.69563599 476.5149234 97.69366455 477.65730286 C97.69230237 480.00680772 97.69600109 482.3563201 97.7043457 484.70581055 C97.714994 488.28533088 97.7044775 491.86434351 97.69165039 495.44384766 C97.69297297 497.72835397 97.6955374 500.01285996 97.69946289 502.29736328 C97.6933902 503.89465523 97.6933902 503.89465523 97.68719482 505.5242157 C97.77558844 519.69635293 102.26584554 529.02865202 112.23242188 538.87817383 C116.71394995 543.12603842 121.50127426 546.26018217 126.96508789 549.12939453 C127.7552832 549.62310547 128.54547852 550.11681641 129.35961914 550.62548828 C137.87122054 555.53848159 147.88855437 558.17439935 157.21899414 561.17626953 C184.26118217 570.0087127 211.96755946 581.1958116 234.40649414 599.06298828 C235.92544011 600.3176225 235.92544011 600.3176225 237.96508789 600.12939453 C237.96508789 600.78939453 237.96508789 601.44939453 237.96508789 602.12939453 C238.60446289 602.23251953 239.24383789 602.33564453 239.90258789 602.44189453 C240.58321289 602.66876953 241.26383789 602.89564453 241.96508789 603.12939453 C242.29508789 604.11939453 242.62508789 605.10939453 242.96508789 606.12939453 C244.36614365 607.55796572 244.36614365 607.55796572 246.02758789 608.81689453 C246.99696289 609.58001953 247.96633789 610.34314453 248.96508789 611.12939453 C252.35057878 609.66345795 254.55988357 607.78012087 257.15258789 605.17236328 C257.93375977 604.38925781 258.71493164 603.60615234 259.51977539 602.79931641 C260.32672852 601.98011719 261.13368164 601.16091797 261.96508789 600.31689453 C262.77204102 599.50929688 263.57899414 598.70169922 264.41040039 597.86962891 C271.41676562 591.83929055 271.41676562 591.83929055 274.96508789 584.12939453 C275.95508789 583.79939453 276.94508789 583.46939453 277.96508789 583.12939453 C280.14545845 580.70590694 280.14545845 580.70590694 282.40258789 577.62939453 C282.83434326 577.05697021 283.26609863 576.4845459 283.7109375 575.89477539 C294.42988031 561.57677149 305.09737319 546.90748875 313.38305664 531.02001953 C314.28447173 529.37298949 315.21430076 527.73915423 316.22485352 526.15673828 C321.14935286 518.37432896 324.57400062 510.10759532 328.09008789 501.62939453 C328.70268971 500.16947383 329.31596741 498.70983655 329.92993164 497.25048828 C331.3736802 493.81244457 332.80335093 490.36883341 334.2244873 486.92138672 C334.88232963 485.32964034 335.54768388 483.74100315 336.21411133 482.15283203 C338.26940835 477.17905128 339.73746596 472.36795363 340.96508789 467.12939453 C341.95005171 463.83469054 343.03007954 460.56996524 344.10961914 457.30517578 C345.55398672 452.81257234 346.57480328 448.33595936 347.45581055 443.70117188 C347.95639552 441.17328974 348.53679879 438.6793373 349.14868164 436.17626953 C360.35127606 389.57029242 359.49107286 337.55842627 347.96508789 291.12939453 C347.67375977 289.93185547 347.38243164 288.73431641 347.08227539 287.50048828 C346.6126932 285.60485911 346.13459924 283.71130071 345.64477539 281.82080078 C344.85835418 278.70675359 344.16334066 275.57683349 343.46508789 272.44189453 C342.02436464 266.16874538 340.47273311 260.09084049 337.54321289 254.33642578 C335.84523299 250.88582801 334.5143333 247.36643983 333.21508789 243.75439453 C328.13489369 229.98288004 322.03666994 216.98286436 314.96508789 204.12939453 C314.43915039 203.14068359 313.91321289 202.15197266 313.37133789 201.13330078 C304.67692153 184.83127011 293.94364463 169.59945402 282.40649414 155.19580078 C280.40961135 152.68771599 278.48122092 150.15450622 276.59008789 147.56689453 C274.28173658 144.46504746 271.77120246 141.80188459 268.96508789 139.12939453 C264.97427286 135.23158578 261.07678162 131.32176659 257.46508789 127.06689453 C253.03030508 121.91486894 247.87006721 117.70576971 242.65258789 113.37939453 C239.96508789 111.12939453 239.96508789 111.12939453 238.21508789 109.31689453 C237.01077796 107.89981138 237.01077796 107.89981138 234.96508789 108.12939453 C234.96508789 107.46939453 234.96508789 106.80939453 234.96508789 106.12939453 C232.96139729 104.37540398 230.95217477 102.74434018 228.84008789 101.12939453 C228.21352295 100.64390137 227.58695801 100.1584082 226.94140625 99.65820312 C220.41095482 94.63427755 213.70279452 89.86924577 206.96508789 85.12939453 C206.07926025 84.48454102 206.07926025 84.48454102 205.17553711 83.82666016 C201.86939942 81.42317037 198.60140651 79.26748304 194.96508789 77.37939453 C191.16052707 75.35822159 187.4663617 73.22757203 183.8059082 70.95556641 C174.54642351 65.22794882 164.86483702 60.63551879 154.96508789 56.12939453 C153.84102539 55.61119141 152.71696289 55.09298828 151.55883789 54.55908203 C149.03403461 53.40072448 146.50142959 52.26217347 143.96508789 51.12939453 C142.85133789 50.61376953 141.73758789 50.09814453 140.59008789 49.56689453 C136.45076474 47.9254388 132.27883267 46.62149281 128.01196289 45.35205078 C125.04756552 44.46914995 122.10706665 43.52740789 119.16821289 42.56298828 C57.33490672 22.55390588 -10.52843344 21.17881604 -73.03491211 39.12939453 Z " fill="#FEA303" transform="translate(383.034912109375,33.87060546875)"/>
<path d="M0 0 C0 3 0 3 -2.29492188 5.63549805 C-3.3451977 6.6852984 -4.40374234 7.72686669 -5.46875 8.76171875 C-6.02365112 9.31237503 -6.57855225 9.86303131 -7.15026855 10.43037415 C-8.92660687 12.18990125 -10.7130848 13.93872165 -12.5 15.6875 C-13.70510885 16.87756521 -14.90954483 18.06831223 -16.11328125 19.25976562 C-19.06776708 22.18114979 -22.03138969 25.09297256 -25 28 C-25.66 27.67 -26.32 27.34 -27 27 C-8.15827338 6.34532374 -8.15827338 6.34532374 0 0 Z " fill="#FDC151" transform="translate(155,128)"/>
</svg>
