<?xml version="1.0" encoding="UTF-8"?>
<svg version="1.1" xmlns="http://www.w3.org/2000/svg" width="204" height="192">
<path d="M0 0 C67.32 0 134.64 0 204 0 C204 63.36 204 126.72 204 192 C136.68 192 69.36 192 0 192 C0 128.64 0 65.28 0 0 Z " fill="#F1F1F1" transform="translate(0,0)"/>
<path d="M0 0 C67.32 0 134.64 0 204 0 C204 63.36 204 126.72 204 192 C136.68 192 69.36 192 0 192 C0 128.64 0 65.28 0 0 Z M73 11 C71.83210938 11.4125 70.66421875 11.825 69.4609375 12.25 C52.28313611 18.95353225 34.86194431 32.55547659 26 49 C26 49.99 26 50.98 26 52 C25.34 52 24.68 52 24 52 C22.87167643 54.54023648 21.74726572 57.08208838 20.625 59.625 C20.14933594 60.69427734 20.14933594 60.69427734 19.6640625 61.78515625 C11.50934542 80.30315962 10.85208645 106.0634198 17.83056641 125.28808594 C26.79041661 147.21479164 43.04015723 167.04491162 64.99707031 176.89599609 C85.78844789 185.57784076 109.50979893 187.80409242 131 180 C131.66 179.76394043 132.32 179.52788086 133 179.28466797 C143.42149265 175.45802614 151.5255349 170.13576257 160 163 C160.8559375 162.34128906 161.711875 161.68257812 162.59375 161.00390625 C171.27858207 153.77124577 176.77172948 143.82820015 182 134 C182.43441406 133.18917969 182.86882812 132.37835938 183.31640625 131.54296875 C192.14528552 114.50420913 193.76199249 87.96720858 188 69.75 C187.06198226 67.47346256 186.05978671 65.22246533 185 63 C184.40048334 61.64608042 183.80155196 60.29190157 183.203125 58.9375 C179.24598337 50.2845906 174.50663896 43.00886667 168 36 C167.27941406 35.21109375 166.55882812 34.4221875 165.81640625 33.609375 C152.1555259 19.29101912 132.40186361 8.03645873 112.22265625 7.0625 C110.62744141 7.0315625 110.62744141 7.0315625 109 7 C108.25089355 6.97035156 107.50178711 6.94070312 106.72998047 6.91015625 C94.76025939 6.45110654 84.37793201 6.90905815 73 11 Z " fill="#FBFBFB" transform="translate(0,0)"/>
<path d="M0 0 C0.91869873 0.00821777 1.83739746 0.01643555 2.78393555 0.02490234 C16.90094237 0.25400655 28.9143535 2.72715492 41.875 8.25 C43.24785156 8.80300781 43.24785156 8.80300781 44.6484375 9.3671875 C52.47707631 12.83813739 58.59996597 18.55021254 64.875 24.25 C65.63039062 24.92160156 66.38578125 25.59320313 67.1640625 26.28515625 C77.48672416 35.97036271 84.04937658 48.10632099 88.875 61.25 C89.29434814 62.35710327 89.29434814 62.35710327 89.72216797 63.48657227 C92.16089313 70.59554996 92.33737706 77.34430153 92.25 84.8125 C92.23694824 86.66161987 92.23694824 86.66161987 92.22363281 88.5480957 C92.01886577 101.3535889 91.07716694 113.81002744 84.875 125.25 C84.3078125 126.41144531 83.740625 127.57289063 83.15625 128.76953125 C79.05717432 137.0260028 74.48586012 143.72222071 67.875 150.25 C67.06289062 151.075 66.25078125 151.9 65.4140625 152.75 C47.07830583 170.80366811 25.47774745 177.53673929 0.26293945 177.56689453 C-8.87160072 177.46779887 -16.53832354 176.53676611 -25.125 173.25 C-26.28515625 172.8375 -27.4453125 172.425 -28.640625 172 C-52.09953946 162.90579528 -68.72261473 144.2920829 -78.91015625 121.76171875 C-84.78580425 107.83935513 -84.63828763 93.12514348 -84.125 78.25 C-84.10566406 77.1775 -84.08632812 76.105 -84.06640625 75 C-83.70666556 67.49995174 -81.08426244 61.08899314 -78.125 54.25 C-77.7228125 53.31800781 -77.320625 52.38601562 -76.90625 51.42578125 C-75.99738407 49.35811125 -75.07313955 47.29988831 -74.125 45.25 C-73.465 45.25 -72.805 45.25 -72.125 45.25 C-72.04121094 44.53199219 -71.95742187 43.81398437 -71.87109375 43.07421875 C-70.39892487 37.50155855 -65.8803356 33.47831414 -62.125 29.25 C-61.36832031 28.39664063 -60.61164062 27.54328125 -59.83203125 26.6640625 C-44.43196311 10.30955128 -22.6134622 -0.24773824 0 0 Z M-25.125 14.25 C-26.38376953 14.71599609 -26.38376953 14.71599609 -27.66796875 15.19140625 C-45.50590124 22.23186456 -61.26430775 37.93647089 -68.94165039 55.34423828 C-77.76722844 76.31970315 -79.0294896 97.10042871 -70.5234375 118.35546875 C-69.13618587 121.69069731 -67.65824593 124.97907535 -66.125 128.25 C-65.465 128.25 -64.805 128.25 -64.125 128.25 C-63.465 129.9 -62.805 131.55 -62.125 133.25 C-59.71157088 130.20069735 -57.86219634 127.03452856 -56 123.625 C-48.22167829 110.20902915 -35.84291522 98.69312193 -21.125 93.25 C-16.795504 93.46927404 -13.56540677 94.33387827 -9.75 96.3125 C-0.78750199 100.07318064 11.13373739 99.70795131 20.11328125 96.1015625 C21.39368254 95.48265456 22.65477549 94.82330204 23.90234375 94.140625 C27.12716372 92.68466668 29.48529458 93.45906874 32.875 94.25 C49.55102538 100.62918642 62.04291165 114.5858233 69.875 130.25 C70.535 130.25 71.195 130.25 71.875 130.25 C82.50197087 110.62105623 87.79571821 91.09817247 81.78222656 68.98779297 C77.60294982 55.18637906 70.6661647 42.01343472 59.875 32.25 C59.11058594 31.53972656 58.34617188 30.82945313 57.55859375 30.09765625 C50.24189843 22.53612253 50.24189843 22.53612253 40.875 19.25 C40.875 18.59 40.875 17.93 40.875 17.25 C37.626032 16.10122578 34.37565288 14.95649699 31.125 13.8125 C30.20460938 13.48701172 29.28421875 13.16152344 28.3359375 12.82617188 C27.44648437 12.51357422 26.55703125 12.20097656 25.640625 11.87890625 C24.82368164 11.59088135 24.00673828 11.30285645 23.16503906 11.00610352 C7.95288074 5.98349644 -10.58440524 8.12484104 -25.125 14.25 Z " fill="#020202" transform="translate(98.125,6.75)"/>
<path d="M0 0 C8.82718901 4.99352739 14.90386344 11.76763009 17.82421875 21.59765625 C19.17053753 30.55609971 18.91711193 39.85582791 13.82421875 47.59765625 C13.15326172 48.65533203 13.15326172 48.65533203 12.46875 49.734375 C6.96932574 57.71075175 0.36130006 61.84261561 -9.17578125 63.59765625 C-19.38728142 64.5823848 -28.0147268 63.19854011 -36.42578125 57.16015625 C-42.51419194 51.9921982 -46.77779501 44.51957825 -48.17578125 36.59765625 C-48.8989484 25.43028664 -48.44737406 17.1995031 -41.23828125 8.41015625 C-30.08191011 -3.35074731 -14.69155801 -6.89446971 0 0 Z " fill="#010101" transform="translate(118.17578125,32.40234375)"/>
<path d="M0 0 C2.31 0 4.62 0 7 0 C7 2.31 7 4.62 7 7 C9.31 7 11.62 7 14 7 C14 9.31 14 11.62 14 14 C16.31 14 18.62 14 21 14 C21 11.69 21 9.38 21 7 C23.31 7 25.62 7 28 7 C28 4.69 28 2.38 28 0 C30.31 0 32.62 0 35 0 C35 2.31 35 4.62 35 7 C36.32 7 37.64 7 39 7 C40.72330907 14.09326321 41.2494783 20.70968976 41 28 C39.02 28 37.04 28 35 28 C35 30.31 35 32.62 35 35 C32.69 35 30.38 35 28 35 C28 32.69 28 30.38 28 28 C25.69 28 23.38 28 21 28 C21 30.31 21 32.62 21 35 C18.69 35 16.38 35 14 35 C14 37.31 14 39.62 14 42 C9.07014496 41.55183136 5.64833828 39.17966006 2 36 C-0.1519437 32.77208445 -0.20086443 31.71599191 0 28 C2.31 28 4.62 28 7 28 C7 25.69 7 23.38 7 21 C4.69 21 2.38 21 0 21 C0 18.69 0 16.38 0 14 C-2.31 14 -4.62 14 -7 14 C-7.625 11.625 -7.625 11.625 -8 9 C-6 7 -6 7 -2.875 6.875 C-1.92625 6.91625 -0.9775 6.9575 0 7 C0 4.69 0 2.38 0 0 Z " fill="#FBFBFB" transform="translate(140,71)"/>
<path d="M0 0 C2 2 2 2 2 5 C4.31 5 6.62 5 9 5 C9 7.31 9 9.62 9 12 C11.31 12 13.62 12 16 12 C16 14.31 16 16.62 16 19 C13.69 19 11.38 19 9 19 C9.99 22.465 9.99 22.465 11 26 C8.62513847 25.10942693 6.34184167 24.19380563 4.1328125 22.94140625 C-0.65576738 20.2489946 -3.48680978 19.46855827 -9 21 C-11.01586684 21.96761608 -13.01753602 22.96567096 -15 24 C-25.84842991 26.87336792 -37.02356973 25.76968381 -47 21 C-50.99623847 19.69214014 -52.95751837 19.50302004 -56.76953125 21.3203125 C-58.72058415 22.41985738 -60.64833231 23.56208502 -62.546875 24.75 C-63.35640625 25.1625 -64.1659375 25.575 -65 26 C-65.99 25.67 -66.98 25.34 -68 25 C-68 23.02 -68 21.04 -68 19 C-65.69 19 -63.38 19 -61 19 C-61 16.69 -61 14.38 -61 12 C-58.69 12 -56.38 12 -54 12 C-54 9.69 -54 7.38 -54 5 C-53.27296875 5.59748047 -53.27296875 5.59748047 -52.53125 6.20703125 C-43.24335086 13.54804384 -33.76189594 15.98827765 -22 15 C-13.03316792 13.08867769 -6.23673972 9.8029041 -1.0625 2.125 C-0.711875 1.42375 -0.36125 0.7225 0 0 Z " fill="#F4F4F4" transform="translate(131,80)"/>
<path d="M0 0 C2.31 0 4.62 0 7 0 C7.78411588 4.10494225 8.09108595 7.90343142 7.9921875 12.078125 C7.97341553 13.23119141 7.95464355 14.38425781 7.93530273 15.57226562 C7.91540283 16.78591797 7.89550293 17.99957031 7.875 19.25 C7.75776509 31.91465011 8.77876059 43.74052573 12 56 C10.35 56 8.7 56 7 56 C7 58.31 7 60.62 7 63 C4.69 63 2.38 63 0 63 C0 60.69 0 58.38 0 56 C-2.31 56 -4.62 56 -7 56 C-7 44.45 -7 32.9 -7 21 C-4.69 21 -2.38 21 0 21 C0 18.69 0 16.38 0 14 C1.65 14 3.3 14 5 14 C5.66 11.69 6.32 9.38 7 7 C4.69 7 2.38 7 0 7 C0 4.69 0 2.38 0 0 Z " fill="#EFEFEF" transform="translate(7,71)"/>
<path d="M0 0 C3.27862942 -0.58847195 5.35646072 -0.40608361 8.19140625 1.3828125 C10.51413584 3.19855035 12.75974359 5.08383132 15 7 C16.010625 7.7425 17.02125 8.485 18.0625 9.25 C22.47828546 12.99219107 26.29993909 17.90720219 29 23 C28.72265625 25.84375 28.72265625 25.84375 28 28 C25.69 28 23.38 28 21 28 C21 30.31 21 32.62 21 35 C18.69 35 16.38 35 14 35 C14 32.69 14 30.38 14 28 C11.69 28 9.38 28 7 28 C7 25.69 7 23.38 7 21 C4.69 21 2.38 21 0 21 C0 18.69 0 16.38 0 14 C-2.31 14 -4.62 14 -7 14 C-7 11.69 -7 9.38 -7 7 C-4.69 7 -2.38 7 0 7 C0 4.69 0 2.38 0 0 Z " fill="#F6F6F6" transform="translate(140,29)"/>
<path d="M0 0 C2.31 0 4.62 0 7 0 C7 2.31 7 4.62 7 7 C10.63 7 14.26 7 18 7 C18.33 6.34 18.66 5.68 19 5 C20.38954389 17.37723357 15.16010239 27.554609 9 38 C8.34 38 7.68 38 7 38 C5.74698831 36.08292217 4.57402736 34.11334888 3.4375 32.125 C-0.33118428 25.70922157 -4.79686013 20.33562723 -10 15 C-9.01 14.67 -8.02 14.34 -7 14 C-7 11.69 -7 9.38 -7 7 C-4.69 7 -2.38 7 0 7 C0 4.69 0 2.38 0 0 Z " fill="#F7F7F7" transform="translate(161,99)"/>
<path d="M0 0 C2.36681057 1.1746824 4.71932728 2.37203423 7.06640625 3.5859375 C21.63900546 11.04320056 34.60739578 15.16923254 51.0625 15.625 C52.79016602 15.68300781 52.79016602 15.68300781 54.55273438 15.7421875 C57.36833796 15.83565152 60.1839486 15.92141252 63 16 C62.67 18.31 62.34 20.62 62 23 C64.31 23 66.62 23 69 23 C69 23.33 69 23.66 69 24 C38.4607005 24.20638953 38.4607005 24.20638953 27 23 C27 20.69 27 18.38 27 16 C24.69 16 22.38 16 20 16 C20 18.31 20 20.62 20 23 C17.69 23 15.38 23 13 23 C13 20.69 13 18.38 13 16 C10.69 16 8.38 16 6 16 C6 13.69 6 11.38 6 9 C3.69 9 1.38 9 -1 9 C-1.09765625 2.84765625 -1.09765625 2.84765625 -1 1 C-0.67 0.67 -0.34 0.34 0 0 Z " fill="#F0F0F0" transform="translate(50,168)"/>
<path d="M0 0 C2.31 0 4.62 0 7 0 C7.33 1.98 7.66 3.96 8 6 C10.97 6.495 10.97 6.495 14 7 C14.33 8.98 14.66 10.96 15 13 C17.97 13.495 17.97 13.495 21 14 C21 16.31 21 18.62 21 21 C18.69 21 16.38 21 14 21 C14.33 22.98 14.66 24.96 15 27 C16.98 27.33 18.96 27.66 21 28 C21 30.31 21 32.62 21 35 C18.69 35 16.38 35 14 35 C14.33 36.98 14.66 38.96 15 41 C16.98 41.33 18.96 41.66 21 42 C21 44.31 21 46.62 21 49 C18.69 49 16.38 49 14 49 C14 46.69 14 44.38 14 42 C11.69 42 9.38 42 7 42 C7 39.69 7 37.38 7 35 C4.69 35 2.38 35 0 35 C0 32.69 0 30.38 0 28 C2.31 28 4.62 28 7 28 C7 25.69 7 23.38 7 21 C4.69 21 2.38 21 0 21 C0 18.69 0 16.38 0 14 C2.31 14 4.62 14 7 14 C7 11.69 7 9.38 7 7 C4.69 7 2.38 7 0 7 C0 4.69 0 2.38 0 0 Z " fill="#FDFDFD" transform="translate(182,1)"/>
<path d="M0 0 C2.31 0 4.62 0 7 0 C7 2.31 7 4.62 7 7 C9.31 7 11.62 7 14 7 C14 4.69 14 2.38 14 0 C16.31 0 18.62 0 21 0 C21 2.31 21 4.62 21 7 C23.31 7 25.62 7 28 7 C28 9.31 28 11.62 28 14 C30.31 14 32.62 14 35 14 C35.495 17.465 35.495 17.465 36 21 C37.98 21 39.96 21 42 21 C42 18.69 42 16.38 42 14 C44.31 14 46.62 14 49 14 C49 16.31 49 18.62 49 21 C51.31 21 53.62 21 56 21 C56 23.31 56 25.62 56 28 C53.69 28 51.38 28 49 28 C49 30.31 49 32.62 49 35 C48.113125 34.21625 47.22625 33.4325 46.3125 32.625 C37.13612568 24.81768153 28.23314336 17.62866301 17 13 C15.87980469 12.53722656 14.75960937 12.07445312 13.60546875 11.59765625 C1.10680321 7.08243153 -11.818709 6.64427785 -25 6 C-25 5.67 -25 5.34 -25 5 C-8.29157175 4.81548975 -8.29157175 4.81548975 0 6 C0 4.02 0 2.04 0 0 Z " fill="#F2F2F2" transform="translate(119,1)"/>
<path d="M0 0 C0.99 0 1.98 0 3 0 C3 2.31 3 4.62 3 7 C5.31 7 7.62 7 10 7 C10 9.31 10 11.62 10 14 C12.31 14 14.62 14 17 14 C17 16.31 17 18.62 17 21 C19.31 21 21.62 21 24 21 C24 23.31 24 25.62 24 28 C21.69 28 19.38 28 17 28 C17 30.31 17 32.62 17 35 C14.69 35 12.38 35 10 35 C10 32.69 10 30.38 10 28 C7.69 28 5.38 28 3 28 C3 25.69 3 23.38 3 21 C1.35 21 -0.3 21 -2 21 C-1.85924795 18.06217531 -1.7126162 15.12484829 -1.5625 12.1875 C-1.52318359 11.35412109 -1.48386719 10.52074219 -1.44335938 9.66210938 C-1.40146484 8.85966797 -1.35957031 8.05722656 -1.31640625 7.23046875 C-1.27974854 6.49207764 -1.24309082 5.75368652 -1.20532227 4.99291992 C-1 3 -1 3 0 0 Z " fill="#FCFCFC" transform="translate(25,78)"/>
<path d="M0 0 C2.31 0 4.62 0 7 0 C7 2.31 7 4.62 7 7 C9.31 7 11.62 7 14 7 C14 4.69 14 2.38 14 0 C16.31 0 18.62 0 21 0 C21 2.31 21 4.62 21 7 C23.31 7 25.62 7 28 7 C28 4.69 28 2.38 28 0 C30.31 0 32.62 0 35 0 C35 2.31 35 4.62 35 7 C37.31 7 39.62 7 42 7 C42 4.69 42 2.38 42 0 C44.31 0 46.62 0 49 0 C49 2.31 49 4.62 49 7 C51.31 7 53.62 7 56 7 C56 4.69 56 2.38 56 0 C58.31 0 60.62 0 63 0 C63 2.31 63 4.62 63 7 C65.31 7 67.62 7 70 7 C70 4.69 70 2.38 70 0 C72.31 0 74.62 0 77 0 C77 2.31 77 4.62 77 7 C81.62 7 86.24 7 91 7 C91 7.33 91 7.66 91 8 C60.97 8 30.94 8 0 8 C0 5.36 0 2.72 0 0 Z " fill="#FBFBFB" transform="translate(0,184)"/>
<path d="M0 0 C2 2 2 2 2.1953125 5.2578125 C2.16050781 7.17207031 2.16050781 7.17207031 2.125 9.125 C2.10695313 10.40632813 2.08890625 11.68765625 2.0703125 13.0078125 C2.04710937 13.99523437 2.02390625 14.98265625 2 16 C-0.31 16 -2.62 16 -5 16 C-5 18.31 -5 20.62 -5 23 C-5.99 23 -6.98 23 -8 23 C-8.66 29.93 -9.32 36.86 -10 44 C-8.35 44 -6.7 44 -5 44 C-5 46.31 -5 48.62 -5 51 C-2.69 51 -0.38 51 2 51 C2 55.62 2 60.24 2 65 C-0.31 65 -2.62 65 -5 65 C-5.0825 64.2575 -5.165 63.515 -5.25 62.75 C-5.78089547 59.88280932 -5.78089547 59.88280932 -8 58.0625 C-12.48529696 53.43703751 -11.3093623 44.73823268 -11.31469727 38.59472656 C-11.0870922 24.41048635 -6.38802862 12.48895483 0 0 Z " fill="#F0F0F0" transform="translate(33,55)"/>
<path d="M0 0 C0 2.31 0 4.62 0 7 C-2.31 7.33 -4.62 7.66 -7 8 C-7 10.31 -7 12.62 -7 15 C-4.69 15 -2.38 15 0 15 C0 17.31 0 19.62 0 22 C-2.31 22 -4.62 22 -7 22 C-7 24.31 -7 26.62 -7 29 C-9.31 29 -11.62 29 -14 29 C-14 26.69 -14 24.38 -14 22 C-14.969375 22.020625 -15.93875 22.04125 -16.9375 22.0625 C-20 22 -20 22 -21 21 C-21.04080783 19.00041636 -21.04254356 16.99954746 -21 15 C-21.66 14.67 -22.32 14.34 -23 14 C-21.87464844 13.48953125 -21.87464844 13.48953125 -20.7265625 12.96875 C-14.06619807 9.81472352 -8.47574574 6.31905618 -2.86328125 1.5390625 C-1 0 -1 0 0 0 Z " fill="#F3F3F3" transform="translate(161,162)"/>
<path d="M0 0 C1.32 0.33 2.64 0.66 4 1 C4 2.98 4 4.96 4 7 C6.31 7 8.62 7 11 7 C11 4.69 11 2.38 11 0 C13.31 0 15.62 0 18 0 C18 2.31 18 4.62 18 7 C19.65 7 21.3 7 23 7 C22.32122754 11.15617601 20.14922799 14.54247583 18.0625 18.125 C17.70220703 18.75792969 17.34191406 19.39085937 16.97070312 20.04296875 C15.47924216 22.63036512 14.12102027 24.87897973 12 27 C11.34 25.35 10.68 23.7 10 22 C9.34 22 8.68 22 8 22 C6.66108439 18.71057634 5.32982297 15.41810891 4 12.125 C3.6184375 11.18785156 3.236875 10.25070313 2.84375 9.28515625 C2.4828125 8.38925781 2.121875 7.49335937 1.75 6.5703125 C1.41484375 5.74289551 1.0796875 4.91547852 0.734375 4.06298828 C0 2 0 2 0 0 Z " fill="#F2F2F2" transform="translate(24,113)"/>
<path d="M0 0 C2.31 0 4.62 0 7 0 C7 2.31 7 4.62 7 7 C9.31 7 11.62 7 14 7 C14 4.69 14 2.38 14 0 C16.31 0 18.62 0 21 0 C21.34765625 2.2265625 21.34765625 2.2265625 21 5 C18.62109375 7.2109375 18.62109375 7.2109375 15.4375 9.375 C10.46999933 12.85415766 6.0928611 16.51802887 2 21 C1.34 20.67 0.68 20.34 0 20 C0 18.02 0 16.04 0 14 C-2.31 14 -4.62 14 -7 14 C-7 11.69 -7 9.38 -7 7 C-4.69 7 -2.38 7 0 7 C0 4.69 0 2.38 0 0 Z " fill="#F3F3F3" transform="translate(35,15)"/>
<path d="M0 0 C-0.33 0.99 -0.66 1.98 -1 3 C-3.31 3 -5.62 3 -8 3 C-8 5.31 -8 7.62 -8 10 C-10.31 10 -12.62 10 -15 10 C-15 12.31 -15 14.62 -15 17 C-21.27 17.33 -27.54 17.66 -34 18 C-34.66 19.98 -35.32 21.96 -36 24 C-38.875 25.25 -38.875 25.25 -42 26 C-43.34555075 26.64165053 -44.6818334 27.30382543 -46 28 C-36.16013024 16.19215629 -26.05402185 7.01610028 -11.5 1.4375 C-10.81744141 1.17372559 -10.13488281 0.90995117 -9.43164062 0.63818359 C-5.9856926 -0.59875745 -3.4722882 -1.47926564 0 0 Z " fill="#F1F1F1" transform="translate(85,19)"/>
<path d="M0 0 C3.88537788 3.47196651 5.19242281 7.80577304 7.0625 12.5625 C7.41376953 13.41908203 7.76503906 14.27566406 8.12695312 15.15820312 C11.86103935 24.53930066 13.33304546 33.23922241 13.1875 43.3125 C13.18685547 44.17939453 13.18621094 45.04628906 13.18554688 45.93945312 C13.15698618 50.08075354 13.04040037 53.96324658 12 58 C11.67 58 11.34 58 11 58 C10.505 55.525 10.505 55.525 10 53 C8.68 53 7.36 53 6 53 C6 50.69 6 48.38 6 46 C7.98 46 9.96 46 12 46 C11.34 39.07 10.68 32.14 10 25 C8.68 25 7.36 25 6 25 C6 22.69 6 20.38 6 18 C3.69 18 1.38 18 -1 18 C-1 15.69 -1 13.38 -1 11 C-3.31 11 -5.62 11 -8 11 C-8 8.69 -8 6.38 -8 4 C-5.69 4 -3.38 4 -1 4 C-0.67 2.68 -0.34 1.36 0 0 Z " fill="#EDEDED" transform="translate(169,53)"/>
<path d="M0 0 C2.31 0 4.62 0 7 0 C7 1.98 7 3.96 7 6 C9.31 6 11.62 6 14 6 C14 4.02 14 2.04 14 0 C20.93 0 27.86 0 35 0 C35 2.31 35 4.62 35 7 C32.69 7 30.38 7 28 7 C28.33 7.99 28.66 8.98 29 10 C21.375 9.125 21.375 9.125 18 8 C15.3042573 7.95474094 12.63142683 7.95236204 9.9375 8 C2.26975361 8.13487681 2.26975361 8.13487681 0 7 C0 4.69 0 2.38 0 0 Z " fill="#FCFCFC" transform="translate(91,22)"/>
<path d="M0 0 C0.33 0 0.66 0 1 0 C1.06058594 0.94101562 1.12117188 1.88203125 1.18359375 2.8515625 C1.26738281 4.09679688 1.35117188 5.34203125 1.4375 6.625 C1.51871094 7.85476562 1.59992188 9.08453125 1.68359375 10.3515625 C1.92742473 13.95616604 1.92742473 13.95616604 2.66015625 17.2734375 C3 20 3 20 1 23 C-2.625 23.1875 -2.625 23.1875 -6 23 C-6 20.69 -6 18.38 -6 16 C-8.31 16 -10.62 16 -13 16 C-13 13.69 -13 11.38 -13 9 C-10.69 9 -8.38 9 -6 9 C-6 6.69 -6 4.38 -6 2 C-4.02 2 -2.04 2 0 2 C0 1.34 0 0.68 0 0 Z " fill="#EEEEEE" transform="translate(69,55)"/>
<path d="M0 0 C1.98 0 3.96 0 6 0 C6 3.80747909 4.80244177 4.97134634 2.5625 8 C0.53912864 10.74687991 -0.91763339 12.75290018 -2 16 C-2.66 16 -3.32 16 -4 16 C-4.66 18.31 -5.32 20.62 -6 23 C-6.33 22.34 -6.66 21.68 -7 21 C-9.31 21 -11.62 21 -14 21 C-14 18.69 -14 16.38 -14 14 C-11.69 14 -9.38 14 -7 14 C-7 11.69 -7 9.38 -7 7 C-4.69 7 -2.38 7 0 7 C0 4.69 0 2.38 0 0 Z " fill="#E7E7E7" transform="translate(28,36)"/>
<path d="M0 0 C2.31 0 4.62 0 7 0 C7.33 1.98 7.66 3.96 8 6 C10.97 6.495 10.97 6.495 14 7 C14 9.31 14 11.62 14 14 C11.69 14 9.38 14 7 14 C7 16.31 7 18.62 7 21 C4.69 21 2.38 21 0 21 C0 18.69 0 16.38 0 14 C1.98 13.67 3.96 13.34 6 13 C6.33 11.02 6.66 9.04 7 7 C4.69 7 2.38 7 0 7 C0 4.69 0 2.38 0 0 Z " fill="#FDFDFD" transform="translate(28,1)"/>
<path d="M0 0 C2 2 2 2 2.1953125 5.2578125 C2.16050781 7.17207031 2.16050781 7.17207031 2.125 9.125 C2.10695313 10.40632813 2.08890625 11.68765625 2.0703125 13.0078125 C2.04710937 13.99523437 2.02390625 14.98265625 2 16 C-0.31 16 -2.62 16 -5 16 C-5 18.31 -5 20.62 -5 23 C-5.99 23 -6.98 23 -8 23 C-9.00708069 34.0239368 -9.10611887 44.94005573 -9 56 C-9.33 56 -9.66 56 -10 56 C-13.97265438 35.78145006 -9.16883453 17.92558661 0 0 Z " fill="#C4C4C4" transform="translate(33,55)"/>
<path d="M0 0 C1.4540625 0.0309375 1.4540625 0.0309375 2.9375 0.0625 C3.2675 2.0425 3.5975 4.0225 3.9375 6.0625 C6.9075 6.5575 6.9075 6.5575 9.9375 7.0625 C9.9375 4.7525 9.9375 2.4425 9.9375 0.0625 C12.2475 0.0625 14.5575 0.0625 16.9375 0.0625 C16.9375 2.3725 16.9375 4.6825 16.9375 7.0625 C19.2475 7.0625 21.5575 7.0625 23.9375 7.0625 C23.9375 7.3925 23.9375 7.7225 23.9375 8.0625 C20.58335201 8.09179977 17.22923747 8.1093989 13.875 8.125 C12.93205078 8.13337891 11.98910156 8.14175781 11.01757812 8.15039062 C5.8744232 8.16831103 1.00491573 7.95509611 -4.0625 7.0625 C-4.10504356 5.06295254 -4.10330783 3.06208364 -4.0625 1.0625 C-3.0625 0.0625 -3.0625 0.0625 0 0 Z " fill="#FDFDFD" transform="translate(116.0625,183.9375)"/>
<path d="M0 0 C6.625 -0.125 6.625 -0.125 10 1 C11.421875 3.21484375 11.421875 3.21484375 12.75 5.9375 C13.19859375 6.83339844 13.6471875 7.72929687 14.109375 8.65234375 C14.40328125 9.42707031 14.6971875 10.20179688 15 11 C14.67 11.66 14.34 12.32 14 13 C11.69 13 9.38 13 7 13 C7 10.69 7 8.38 7 6 C4.69 6 2.38 6 0 6 C0 4.02 0 2.04 0 0 Z " fill="#EDEDED" transform="translate(14,135)"/>
<path d="M0 0 C2.31 0 4.62 0 7 0 C7 2.31 7 4.62 7 7 C9.31 7 11.62 7 14 7 C14 8.32 14 9.64 14 11 C12.824375 10.71125 11.64875 10.4225 10.4375 10.125 C-1.23205115 7.55002862 -13.09625191 6.64162046 -25 6 C-25 5.67 -25 5.34 -25 5 C-8.29157175 4.81548975 -8.29157175 4.81548975 0 6 C0 4.02 0 2.04 0 0 Z " fill="#D2D2D2" transform="translate(119,1)"/>
<path d="M0 0 C1.98 0 3.96 0 6 0 C6 2.31 6 4.62 6 7 C8.31 7 10.62 7 13 7 C13 9.31 13 11.62 13 14 C11.02 14 9.04 14 7 14 C6.67 14.66 6.34 15.32 6 16 C3.66666667 11.33333333 1.33333333 6.66666667 -1 2 C-0.67 1.34 -0.34 0.68 0 0 Z " fill="#EAEAEA" transform="translate(176,43)"/>
<path d="M0 0 C1.14210938 0.00193359 2.28421875 0.00386719 3.4609375 0.00585938 C4.64945313 0.01810547 5.83796875 0.03035156 7.0625 0.04296875 C8.84527344 0.04393555 8.84527344 0.04393555 10.6640625 0.04492188 C20.27989869 0.09376077 20.27989869 0.09376077 24.0625 1.23046875 C24.625 3.16796875 24.625 3.16796875 25.0625 5.23046875 C24.0625 6.23046875 24.0625 6.23046875 20.90234375 6.328125 C18.97068359 6.31072266 18.97068359 6.31072266 17 6.29296875 C15.70964844 6.28394531 14.41929688 6.27492188 13.08984375 6.265625 C12.09082031 6.25402344 11.09179688 6.24242187 10.0625 6.23046875 C10.0625 4.58046875 10.0625 2.93046875 10.0625 1.23046875 C3.4625 1.56046875 -3.1375 1.89046875 -9.9375 2.23046875 C-5.91219082 0.21781416 -4.3432044 -0.01711244 0 0 Z " fill="#CECECE" transform="translate(94.9375,15.76953125)"/>
<path d="M0 0 C0.33 0.99 0.66 1.98 1 3 C2.98 3 4.96 3 7 3 C7 4.98 7 6.96 7 9 C4.69 9 2.38 9 0 9 C0 11.31 0 13.62 0 16 C-1.98 16 -3.96 16 -6 16 C-7 13 -7 13 -5.56640625 9.86328125 C-4.90864027 8.6739872 -4.24022185 7.49053629 -3.5625 6.3125 C-3.22412109 5.70599609 -2.88574219 5.09949219 -2.53710938 4.47460938 C-1.70042085 2.9779975 -0.85137169 1.48830811 0 0 Z " fill="#E4E4E4" transform="translate(182,132)"/>
<path d="M0 0 C-0.66 1.98 -1.32 3.96 -2 6 C-4.31 6 -6.62 6 -9 6 C-9 8.31 -9 10.62 -9 13 C-10.99954746 13.04254356 -13.00041636 13.04080783 -15 13 C-16 12 -16 12 -16.0625 8.9375 C-16.041875 7.968125 -16.02125 6.99875 -16 6 C-17.32 5.67 -18.64 5.34 -20 5 C-18.86820312 4.72285156 -17.73640625 4.44570312 -16.5703125 4.16015625 C-15.08851098 3.79439512 -13.60674182 3.42850289 -12.125 3.0625 C-11.37863281 2.88009766 -10.63226563 2.69769531 -9.86328125 2.50976562 C-6.61466819 1.70492906 -3.27193292 0 0 0 Z " fill="#EBEBEB" transform="translate(135,178)"/>
<path d="M0 0 C2.31 0 4.62 0 7 0 C7.33 1.98 7.66 3.96 8 6 C10.97 6.495 10.97 6.495 14 7 C14 9.31 14 11.62 14 14 C11.69 14 9.38 14 7 14 C7 11.69 7 9.38 7 7 C4.69 7 2.38 7 0 7 C0 4.69 0 2.38 0 0 Z " fill="#FEFEFE" transform="translate(133,36)"/>
<path d="M0 0 C1.4540625 0.0309375 1.4540625 0.0309375 2.9375 0.0625 C3.2675 2.0425 3.5975 4.0225 3.9375 6.0625 C6.9075 6.5575 6.9075 6.5575 9.9375 7.0625 C9.9375 9.3725 9.9375 11.6825 9.9375 14.0625 C7.6275 14.0625 5.3175 14.0625 2.9375 14.0625 C2.9375 11.7525 2.9375 9.4425 2.9375 7.0625 C0.6275 7.0625 -1.6825 7.0625 -4.0625 7.0625 C-4.10504356 5.06295254 -4.10330783 3.06208364 -4.0625 1.0625 C-3.0625 0.0625 -3.0625 0.0625 0 0 Z " fill="#FDFDFD" transform="translate(144.0625,0.9375)"/>
<path d="M0 0 C2.31 0 4.62 0 7 0 C7.33 1.98 7.66 3.96 8 6 C10.97 6.495 10.97 6.495 14 7 C14 9.31 14 11.62 14 14 C12.00045254 14.04254356 9.99958364 14.04080783 8 14 C7 13 7 13 6.9375 9.9375 C6.958125 8.968125 6.97875 7.99875 7 7 C5.5459375 7.0309375 5.5459375 7.0309375 4.0625 7.0625 C1 7 1 7 0 6 C-0.04080783 4.00041636 -0.04254356 1.99954746 0 0 Z " fill="#EEEEEE" transform="translate(189,1)"/>
<path d="M0 0 C1.65 0 3.3 0 5 0 C5 0.66 5 1.32 5 2 C5.66 2 6.32 2 7 2 C7 5.96 7 9.92 7 14 C4.69 14 2.38 14 0 14 C0 9.38 0 4.76 0 0 Z " fill="#EFEFEF" transform="translate(63,177)"/>
<path d="M0 0 C2.31 0 4.62 0 7 0 C7 2.31 7 4.62 7 7 C9.31 7 11.62 7 14 7 C14 10.63 14 14.26 14 18 C13.2575 16.9790625 13.2575 16.9790625 12.5 15.9375 C8.26192942 10.95776707 3.25515704 6.87098621 -2 3 C-1.34 2.67 -0.68 2.34 0 2 C0 1.34 0 0.68 0 0 Z " fill="#E7E7E7" transform="translate(119,29)"/>
<path d="M0 0 C1.21042969 0.24556641 1.21042969 0.24556641 2.4453125 0.49609375 C6.62768788 1.08897993 10.65944818 1.10894252 14.875 1.0625 C16.050625 1.05573242 16.050625 1.05573242 17.25 1.04882812 C19.16670014 1.03714093 21.08336048 1.01920908 23 1 C22.67 1.99 22.34 2.98 22 4 C19.69 4 17.38 4 15 4 C15 5.65 15 7.3 15 9 C12.69 9 10.38 9 8 9 C8 7.35 8 5.7 8 4 C5.69 4 3.38 4 1 4 C0.67 2.68 0.34 1.36 0 0 Z " fill="#FAFAFA" transform="translate(90,95)"/>
<path d="M0 0 C4.62 0 9.24 0 14 0 C14.33 2.31 14.66 4.62 15 7 C16.98 7 18.96 7 21 7 C21 8.65 21 10.3 21 12 C20.01 12.495 20.01 12.495 19 13 C18.29875 12.46890625 17.5975 11.9378125 16.875 11.390625 C11.42378216 7.3318378 6.19348384 3.80459645 0 1 C0 0.67 0 0.34 0 0 Z " fill="#EDEDED" transform="translate(140,15)"/>
<path d="M0 0 C0.33 0 0.66 0 1 0 C1.13277344 0.74765625 1.26554687 1.4953125 1.40234375 2.265625 C1.57894531 3.25046875 1.75554688 4.2353125 1.9375 5.25 C2.11152344 6.22453125 2.28554688 7.1990625 2.46484375 8.203125 C2.90379729 10.49721795 3.40348592 12.74291971 4 15 C2.35 15 0.7 15 -1 15 C-1 12.69 -1 10.38 -1 8 C-3.31 8 -5.62 8 -8 8 C-8 5.69 -8 3.38 -8 1 C-6.00045254 0.95745644 -3.99958364 0.95919217 -2 1 C-1.67 1.33 -1.34 1.66 -1 2 C-0.67 1.34 -0.34 0.68 0 0 Z " fill="#EEEEEE" transform="translate(15,112)"/>
<path d="M0 0 C6.90664023 10.35996034 6.47014044 27.17915736 4.484375 39.09375 C4.32453125 39.7228125 4.1646875 40.351875 4 41 C3.67 41 3.34 41 3 41 C2.67 39.35 2.34 37.7 2 36 C0.68 36 -0.64 36 -2 36 C-2 33.69 -2 31.38 -2 29 C-0.02 29 1.96 29 4 29 C3.71599915 26.14488509 3.42304348 23.2911551 3.125 20.4375 C3.04636719 19.63763672 2.96773437 18.83777344 2.88671875 18.01367188 C2.36934469 13.13841635 1.38784323 8.71750072 0 4 C0 2.68 0 1.36 0 0 Z " fill="#AFAFAF" transform="translate(177,70)"/>
<path d="M0 0 C2.31 0 4.62 0 7 0 C7.94864925 4.77278898 8.13171421 9.39465977 8.09765625 14.2421875 C8.0962413 15.01055939 8.09482635 15.77893127 8.09336853 16.57058716 C8.08780683 19.00543239 8.0752616 21.44018294 8.0625 23.875 C8.05748004 25.53385283 8.05291801 27.19270712 8.04882812 28.8515625 C8.03784998 32.9010777 8.02061206 36.95052284 8 41 C7.67 41 7.34 41 7 41 C5.79317739 35.32984932 5.85205674 29.76640493 5.875 24 C5.87113281 23.02804688 5.86726562 22.05609375 5.86328125 21.0546875 C5.8698161 16.25810769 5.99648353 11.71493453 7 7 C4.69 7 2.38 7 0 7 C0 4.69 0 2.38 0 0 Z " fill="#CCCCCC" transform="translate(7,71)"/>
<path d="M0 0 C0.33 0 0.66 0 1 0 C1 9.57 1 19.14 1 29 C2.65 29 4.3 29 6 29 C6 31.31 6 33.62 6 36 C3.69 36 1.38 36 -1 36 C-2.28303301 33.43393399 -1.93025291 32.10452721 -1.625 29.25 C-1.02796885 22.92302053 -0.713661 16.59864592 -0.4375 10.25 C-0.39383301 9.2487207 -0.35016602 8.24744141 -0.30517578 7.21582031 C-0.20166807 4.81061699 -0.09984867 2.40535761 0 0 Z " fill="#C9C9C9" transform="translate(190,84)"/>
<path d="M0 0 C2.31 0 4.62 0 7 0 C7.375 2.19921875 7.375 2.19921875 7 5 C5.00801938 6.86451757 3.23044928 8.30292791 1 9.8125 C0.42765625 10.21919922 -0.1446875 10.62589844 -0.734375 11.04492188 C-2.14588621 12.04474232 -3.57165041 13.02438622 -5 14 C-5.66 13.67 -6.32 13.34 -7 13 C-7 11.02 -7 9.04 -7 7 C-4.69 7 -2.38 7 0 7 C0 4.69 0 2.38 0 0 Z " fill="#E8E8E8" transform="translate(49,15)"/>
<path d="M0 0 C1.32 0 2.64 0 4 0 C0.92482916 10.55808656 0.92482916 10.55808656 -1 15 C-3.31 14.67 -5.62 14.34 -8 14 C-8.125 11.625 -8.125 11.625 -8 9 C-6 7 -6 7 -3.375 6.875 C-2.59125 6.91625 -1.8075 6.9575 -1 7 C-1.020625 6.030625 -1.04125 5.06125 -1.0625 4.0625 C-1 1 -1 1 0 0 Z " fill="#EDEDED" transform="translate(176,113)"/>
<path d="M0 0 C2.31 0 4.62 0 7 0 C7.125 5.75 7.125 5.75 6 8 C3.83927773 8.78623891 1.64509125 9.48201226 -0.5625 10.125 C-1.76003906 10.47820313 -2.95757812 10.83140625 -4.19140625 11.1953125 C-5.58166016 11.59363281 -5.58166016 11.59363281 -7 12 C-7 10.35 -7 8.7 -7 7 C-4.69 7 -2.38 7 0 7 C0 4.69 0 2.38 0 0 Z " fill="#EFEFEF" transform="translate(77,1)"/>
<path d="M0 0 C5.27749285 0.53851968 9.25645564 1.77343836 14 4 C14 6.31 14 8.62 14 11 C11.69 11 9.38 11 7 11 C7 8.69 7 6.38 7 4 C4.69 4 2.38 4 0 4 C0 2.68 0 1.36 0 0 Z " fill="#EEEEEE" transform="translate(119,18)"/>
<path d="M0 0 C1.65 0 3.3 0 5 0 C5 2.31 5 4.62 5 7 C3.68 7 2.36 7 1 7 C1 9.31 1 11.62 1 14 C2.32 14 3.64 14 5 14 C5 16.31 5 18.62 5 21 C3.35 20.67 1.7 20.34 0 20 C0 13.4 0 6.8 0 0 Z " fill="#EFEFEF" transform="translate(191,85)"/>
<path d="M0 0 C-0.33 0.99 -0.66 1.98 -1 3 C-3.31 3 -5.62 3 -8 3 C-8 5.31 -8 7.62 -8 10 C-10.31 10 -12.62 10 -15 10 C-15.36860068 5.45392491 -15.36860068 5.45392491 -13.734375 3.44140625 C-11.88555049 1.90488318 -10.30682682 1.09431489 -8.0625 0.25 C-7.39347656 -0.01296875 -6.72445312 -0.2759375 -6.03515625 -0.546875 C-3.68352509 -1.07046274 -2.26382477 -0.74954377 0 0 Z " fill="#EDEDED" transform="translate(85,19)"/>
<path d="M0 0 C3.63 0 7.26 0 11 0 C10.01 2.97 9.02 5.94 8 9 C7.67 8.34 7.34 7.68 7 7 C4.69 7 2.38 7 0 7 C0 4.69 0 2.38 0 0 Z " fill="#EDEDED" transform="translate(14,50)"/>
<path d="M0 0 C1.32 0.33 2.64 0.66 4 1 C4 2.98 4 4.96 4 7 C6.31 7 8.62 7 11 7 C11 9.31 11 11.62 11 14 C9.02 14.33 7.04 14.66 5 15 C4.16260219 12.8765984 3.33019717 10.7512272 2.5 8.625 C1.80390625 6.84996094 1.80390625 6.84996094 1.09375 5.0390625 C0 2 0 2 0 0 Z " fill="#E0E0E0" transform="translate(24,113)"/>
<path d="M0 0 C2.97 0 5.94 0 9 0 C8.43697042 3.94120709 7.3208055 6.7508723 5 10 C4.34 10 3.68 10 3 10 C-0.22265625 4.82421875 -0.22265625 4.82421875 -1 3 C-0.67 2.01 -0.34 1.02 0 0 Z " fill="#F4F4F4" transform="translate(165,127)"/>
<path d="M0 0 C-0.66 1.98 -1.32 3.96 -2 6 C-4.31 6 -6.62 6 -9 6 C-9 5.34 -9 4.68 -9 4 C-10.12019531 4.02320312 -11.24039063 4.04640625 -12.39453125 4.0703125 C-13.86718084 4.08907237 -15.33983763 4.10727234 -16.8125 4.125 C-17.55048828 4.14175781 -18.28847656 4.15851563 -19.04882812 4.17578125 C-22.91246426 4.21074628 -24.70903668 4.19397555 -28 2 C-26.96101563 2.03480469 -25.92203125 2.06960937 -24.8515625 2.10546875 C-17.39296625 2.2764061 -10.90248665 2.25942288 -3.8203125 -0.44140625 C-2 -1 -2 -1 0 0 Z " fill="#C8C8C8" transform="translate(121,93)"/>
<path d="M0 0 C6.93 0 13.86 0 21 0 C20.67 2.31 20.34 4.62 20 7 C17.69 7 15.38 7 13 7 C13 5.35 13 3.7 13 2 C8.71 1.67 4.42 1.34 0 1 C0 0.67 0 0.34 0 0 Z " fill="#D2D2D2" transform="translate(92,184)"/>
<path d="M0 0 C2.31 0 4.62 0 7 0 C7.33 1.98 7.66 3.96 8 6 C10.97 6.495 10.97 6.495 14 7 C14 7.33 14 7.66 14 8 C7.07 7.505 7.07 7.505 0 7 C0 4.69 0 2.38 0 0 Z " fill="#FDFDFD" transform="translate(154,184)"/>
<path d="M0 0 C2.31 0 4.62 0 7 0 C7 2.31 7 4.62 7 7 C6.05125 7.12375 5.1025 7.2475 4.125 7.375 C0.91332809 7.71687177 0.91332809 7.71687177 -1 10 C-1.66 9.01 -2.32 8.02 -3 7 C-2.01 7 -1.02 7 0 7 C0 4.69 0 2.38 0 0 Z " fill="#EAEAEA" transform="translate(154,106)"/>
<path d="M0 0 C2.31 0 4.62 0 7 0 C7.33 3.96 7.66 7.92 8 12 C7.34 10.68 6.68 9.36 6 8 C2.94091587 7.18415432 2.94091587 7.18415432 0 7 C0 4.69 0 2.38 0 0 Z " fill="#FBFBFB" transform="translate(7,106)"/>
<path d="M0 0 C2.31 0 4.62 0 7 0 C7 1.65 7 3.3 7 5 C11.29 5 15.58 5 20 5 C20 5.33 20 5.66 20 6 C17.29139335 6.05429278 14.58389099 6.09381211 11.875 6.125 C11.11445312 6.14175781 10.35390625 6.15851563 9.5703125 6.17578125 C4.96729269 6.21546246 1.33535996 5.75907577 -3 4 C-2.01 3.67 -1.02 3.34 0 3 C0 2.01 0 1.02 0 0 Z " fill="#DADADA" transform="translate(91,99)"/>
<path d="M0 0 C1.125 1.6875 1.125 1.6875 2 4 C1.125 6.75 1.125 6.75 0 9 C-2.31 9 -4.62 9 -7 9 C-7 6.69 -7 4.38 -7 2 C-4.69 2 -2.38 2 0 2 C0 1.34 0 0.68 0 0 Z " fill="#E6E6E6" transform="translate(70,69)"/>
<path d="M0 0 C1.60031344 3.20062687 0.03173691 5.72271806 -1 9 C-3.97 8.505 -3.97 8.505 -7 8 C-7 5.69 -7 3.38 -7 1 C-3.535 0.505 -3.535 0.505 0 0 Z " fill="#FCFCFC" transform="translate(203,140)"/>
<path d="M0 0 C0 2.31 0 4.62 0 7 C-1.99954746 7.04254356 -4.00041636 7.04080783 -6 7 C-7 6 -7 6 -7.0625 2.9375 C-7.041875 1.968125 -7.02125 0.99875 -7 0 C-7.66 -0.33 -8.32 -0.66 -9 -1 C-5.79937313 -2.60031344 -3.27728194 -1.03173691 0 0 Z " fill="#E8E8E8" transform="translate(147,177)"/>
<path d="M0 0 C0.33 0 0.66 0 1 0 C1 3.63 1 7.26 1 11 C0.67 10.34 0.34 9.68 0 9 C-1.98 9 -3.96 9 -6 9 C-6 6.69 -6 4.38 -6 2 C-4.02 2 -2.04 2 0 2 C0 1.34 0 0.68 0 0 Z " fill="#E6E6E6" transform="translate(69,55)"/>
<path d="M0 0 C-0.33 2.31 -0.66 4.62 -1 7 C-3.31 7 -5.62 7 -8 7 C-8 4.69 -8 2.38 -8 0 C-4.71303767 -0.79953138 -3.28976808 -1.09658936 0 0 Z " fill="#FCFCFC" transform="translate(162,43)"/>
<path d="M0 0 C2.31 0 4.62 0 7 0 C7.33 1.98 7.66 3.96 8 6 C5 8 5 8 2.3125 7.625 C1.549375 7.41875 0.78625 7.2125 0 7 C0 4.69 0 2.38 0 0 Z " fill="#FDFDFD" transform="translate(42,113)"/>
<path d="M0 0 C1.62463842 -0.05395478 3.24978541 -0.09277195 4.875 -0.125 C5.77992187 -0.14820312 6.68484375 -0.17140625 7.6171875 -0.1953125 C10 0 10 0 12 2 C10.56988027 2.86646667 9.13059381 3.71781829 7.6875 4.5625 C6.48673828 5.27599609 6.48673828 5.27599609 5.26171875 6.00390625 C3 7 3 7 0 6 C0 4.02 0 2.04 0 0 Z " fill="#E6E6E6" transform="translate(63,99)"/>
<path d="M0 0 C2.31 0 4.62 0 7 0 C7 1.65 7 3.3 7 5 C7.66 5.33 8.32 5.66 9 6 C4.56923077 8.09230769 4.56923077 8.09230769 1.6875 7.625 C1.130625 7.41875 0.57375 7.2125 0 7 C0 4.69 0 2.38 0 0 Z " fill="#EAEAEA" transform="translate(77,29)"/>
<path d="M0 0 C2.31 0 4.62 0 7 0 C7.33 2.64 7.66 5.28 8 8 C5.36 7.67 2.72 7.34 0 7 C0 4.69 0 2.38 0 0 Z " fill="#FCFCFC" transform="translate(28,29)"/>
<path d="M0 0 C0 2.64 0 5.28 0 8 C-2.31 8 -4.62 8 -7 8 C-7 5.69 -7 3.38 -7 1 C-1.125 0 -1.125 0 0 0 Z " fill="#FEFEFE" transform="translate(77,84)"/>
<path d="M0 0 C2.31 0 4.62 0 7 0 C7 2.31 7 4.62 7 7 C4.69 7.33 2.38 7.66 0 8 C0 5.36 0 2.72 0 0 Z " fill="#FEFEFE" transform="translate(154,15)"/>
<path d="M0 0 C2.31 0 4.62 0 7 0 C7 2.31 7 4.62 7 7 C4.69 7 2.38 7 0 7 C0 4.69 0 2.38 0 0 Z " fill="#EEEEEE" transform="translate(175,184)"/>
<path d="M0 0 C2.31 0 4.62 0 7 0 C7 2.31 7 4.62 7 7 C4.69 7 2.38 7 0 7 C0 4.69 0 2.38 0 0 Z " fill="#EFEFEF" transform="translate(133,184)"/>
<path d="M0 0 C2.31 0 4.62 0 7 0 C7 2.31 7 4.62 7 7 C4.69 7 2.38 7 0 7 C0 4.69 0 2.38 0 0 Z " fill="#EEEEEE" transform="translate(49,184)"/>
<path d="M0 0 C2.31 0 4.62 0 7 0 C7 2.31 7 4.62 7 7 C4.69 7 2.38 7 0 7 C0 4.69 0 2.38 0 0 Z " fill="#EFEFEF" transform="translate(35,184)"/>
<path d="M0 0 C2.31 0 4.62 0 7 0 C7 2.31 7 4.62 7 7 C4.69 7 2.38 7 0 7 C0 4.69 0 2.38 0 0 Z " fill="#EEEEEE" transform="translate(21,184)"/>
<path d="M0 0 C2.31 0 4.62 0 7 0 C7 2.31 7 4.62 7 7 C4.69 7 2.38 7 0 7 C0 4.69 0 2.38 0 0 Z " fill="#FEFEFE" transform="translate(14,184)"/>
<path d="M0 0 C2.31 0 4.62 0 7 0 C7 2.31 7 4.62 7 7 C4.69 7 2.38 7 0 7 C0 4.69 0 2.38 0 0 Z " fill="#EFEFEF" transform="translate(7,184)"/>
<path d="M0 0 C2.31 0 4.62 0 7 0 C7 2.31 7 4.62 7 7 C4.69 7 2.38 7 0 7 C0 4.69 0 2.38 0 0 Z " fill="#FEFEFE" transform="translate(49,177)"/>
<path d="M0 0 C2.31 0 4.62 0 7 0 C7 2.31 7 4.62 7 7 C4.69 7 2.38 7 0 7 C0 4.69 0 2.38 0 0 Z " fill="#EEEEEE" transform="translate(42,177)"/>
<path d="M0 0 C2.31 0 4.62 0 7 0 C7 2.31 7 4.62 7 7 C4.69 7 2.38 7 0 7 C0 4.69 0 2.38 0 0 Z " fill="#EEEEEE" transform="translate(28,177)"/>
<path d="M0 0 C2.31 0 4.62 0 7 0 C7 2.31 7 4.62 7 7 C4.69 7 2.38 7 0 7 C0 4.69 0 2.38 0 0 Z " fill="#EEEEEE" transform="translate(14,177)"/>
<path d="M0 0 C2.31 0 4.62 0 7 0 C7 2.31 7 4.62 7 7 C4.69 7 2.38 7 0 7 C0 4.69 0 2.38 0 0 Z " fill="#EEEEEE" transform="translate(0,177)"/>
<path d="M0 0 C2.31 0 4.62 0 7 0 C7 2.31 7 4.62 7 7 C4.69 7 2.38 7 0 7 C0 4.69 0 2.38 0 0 Z " fill="#EFEFEF" transform="translate(7,127)"/>
<path d="M0 0 C2.31 0 4.62 0 7 0 C7 2.31 7 4.62 7 7 C4.69 7 2.38 7 0 7 C0 4.69 0 2.38 0 0 Z " fill="#FDFDFD" transform="translate(7,120)"/>
<path d="M0 0 C2.31 0 4.62 0 7 0 C7 2.31 7 4.62 7 7 C4.69 7 2.38 7 0 7 C0 4.69 0 2.38 0 0 Z " fill="#EEEEEE" transform="translate(0,120)"/>
<path d="M0 0 C2.31 0 4.62 0 7 0 C7 2.31 7 4.62 7 7 C4.69 7 2.38 7 0 7 C0 4.69 0 2.38 0 0 Z " fill="#FEFEFE" transform="translate(28,113)"/>
<path d="M0 0 C2.31 0 4.62 0 7 0 C7 2.31 7 4.62 7 7 C4.69 7 2.38 7 0 7 C0 4.69 0 2.38 0 0 Z " fill="#FEFEFE" transform="translate(0,113)"/>
<path d="M0 0 C2.31 0 4.62 0 7 0 C7 2.31 7 4.62 7 7 C4.69 7 2.38 7 0 7 C0 4.69 0 2.38 0 0 Z " fill="#EEEEEE" transform="translate(0,106)"/>
<path d="M0 0 C2.31 0 4.62 0 7 0 C7 2.31 7 4.62 7 7 C4.69 7 2.38 7 0 7 C0 4.69 0 2.38 0 0 Z " fill="#FDFDFD" transform="translate(168,99)"/>
<path d="M0 0 C2.31 0 4.62 0 7 0 C7 2.31 7 4.62 7 7 C4.69 7 2.38 7 0 7 C0 4.69 0 2.38 0 0 Z " fill="#EFEFEF" transform="translate(161,99)"/>
<path d="M0 0 C2.31 0 4.62 0 7 0 C7 2.31 7 4.62 7 7 C4.69 7 2.38 7 0 7 C0 4.69 0 2.38 0 0 Z " fill="#FEFEFE" transform="translate(154,99)"/>
<path d="M0 0 C2.31 0 4.62 0 7 0 C7 2.31 7 4.62 7 7 C4.69 7 2.38 7 0 7 C0 4.69 0 2.38 0 0 Z " fill="#EEEEEE" transform="translate(147,99)"/>
<path d="M0 0 C2.31 0 4.62 0 7 0 C7 2.31 7 4.62 7 7 C4.69 7 2.38 7 0 7 C0 4.69 0 2.38 0 0 Z " fill="#FEFEFE" transform="translate(42,99)"/>
<path d="M0 0 C2.31 0 4.62 0 7 0 C7 2.31 7 4.62 7 7 C4.69 7 2.38 7 0 7 C0 4.69 0 2.38 0 0 Z " fill="#EFEFEF" transform="translate(35,99)"/>
<path d="M0 0 C2.31 0 4.62 0 7 0 C7 2.31 7 4.62 7 7 C4.69 7 2.38 7 0 7 C0 4.69 0 2.38 0 0 Z " fill="#FEFEFE" transform="translate(28,99)"/>
<path d="M0 0 C2.31 0 4.62 0 7 0 C7 2.31 7 4.62 7 7 C4.69 7 2.38 7 0 7 C0 4.69 0 2.38 0 0 Z " fill="#FEFEFE" transform="translate(0,99)"/>
<path d="M0 0 C2.31 0 4.62 0 7 0 C7 2.31 7 4.62 7 7 C4.69 7 2.38 7 0 7 C0 4.69 0 2.38 0 0 Z " fill="#EEEEEE" transform="translate(168,92)"/>
<path d="M0 0 C2.31 0 4.62 0 7 0 C7 2.31 7 4.62 7 7 C4.69 7 2.38 7 0 7 C0 4.69 0 2.38 0 0 Z " fill="#EEEEEE" transform="translate(154,92)"/>
<path d="M0 0 C2.31 0 4.62 0 7 0 C7 2.31 7 4.62 7 7 C4.69 7 2.38 7 0 7 C0 4.69 0 2.38 0 0 Z " fill="#FEFEFE" transform="translate(147,92)"/>
<path d="M0 0 C2.31 0 4.62 0 7 0 C7 2.31 7 4.62 7 7 C4.69 7 2.38 7 0 7 C0 4.69 0 2.38 0 0 Z " fill="#EEEEEE" transform="translate(140,92)"/>
<path d="M0 0 C2.31 0 4.62 0 7 0 C7 2.31 7 4.62 7 7 C4.69 7 2.38 7 0 7 C0 4.69 0 2.38 0 0 Z " fill="#FEFEFE" transform="translate(133,92)"/>
<path d="M0 0 C2.31 0 4.62 0 7 0 C7 2.31 7 4.62 7 7 C4.69 7 2.38 7 0 7 C0 4.69 0 2.38 0 0 Z " fill="#FDFDFD" transform="translate(63,92)"/>
<path d="M0 0 C2.31 0 4.62 0 7 0 C7 2.31 7 4.62 7 7 C4.69 7 2.38 7 0 7 C0 4.69 0 2.38 0 0 Z " fill="#EEEEEE" transform="translate(56,92)"/>
<path d="M0 0 C2.31 0 4.62 0 7 0 C7 2.31 7 4.62 7 7 C4.69 7 2.38 7 0 7 C0 4.69 0 2.38 0 0 Z " fill="#FEFEFE" transform="translate(49,92)"/>
<path d="M0 0 C2.31 0 4.62 0 7 0 C7 2.31 7 4.62 7 7 C4.69 7 2.38 7 0 7 C0 4.69 0 2.38 0 0 Z " fill="#EEEEEE" transform="translate(42,92)"/>
<path d="M0 0 C2.31 0 4.62 0 7 0 C7 2.31 7 4.62 7 7 C4.69 7 2.38 7 0 7 C0 4.69 0 2.38 0 0 Z " fill="#FEFEFE" transform="translate(35,92)"/>
<path d="M0 0 C2.31 0 4.62 0 7 0 C7 2.31 7 4.62 7 7 C4.69 7 2.38 7 0 7 C0 4.69 0 2.38 0 0 Z " fill="#EEEEEE" transform="translate(28,92)"/>
<path d="M0 0 C2.31 0 4.62 0 7 0 C7 2.31 7 4.62 7 7 C4.69 7 2.38 7 0 7 C0 4.69 0 2.38 0 0 Z " fill="#FDFDFD" transform="translate(56,85)"/>
<path d="M0 0 C2.31 0 4.62 0 7 0 C7 2.31 7 4.62 7 7 C4.69 7 2.38 7 0 7 C0 4.69 0 2.38 0 0 Z " fill="#EEEEEE" transform="translate(49,85)"/>
<path d="M0 0 C2.31 0 4.62 0 7 0 C7 2.31 7 4.62 7 7 C4.69 7 2.38 7 0 7 C0 4.69 0 2.38 0 0 Z " fill="#FEFEFE" transform="translate(42,85)"/>
<path d="M0 0 C2.31 0 4.62 0 7 0 C7 2.31 7 4.62 7 7 C4.69 7 2.38 7 0 7 C0 4.69 0 2.38 0 0 Z " fill="#EFEFEF" transform="translate(35,85)"/>
<path d="M0 0 C2.31 0 4.62 0 7 0 C7 2.31 7 4.62 7 7 C4.69 7 2.38 7 0 7 C0 4.69 0 2.38 0 0 Z " fill="#FEFEFE" transform="translate(28,85)"/>
<path d="M0 0 C2.31 0 4.62 0 7 0 C7 2.31 7 4.62 7 7 C4.69 7 2.38 7 0 7 C0 4.69 0 2.38 0 0 Z " fill="#FEFEFE" transform="translate(0,85)"/>
<path d="M0 0 C2.31 0 4.62 0 7 0 C7 2.31 7 4.62 7 7 C4.69 7 2.38 7 0 7 C0 4.69 0 2.38 0 0 Z " fill="#FEFEFE" transform="translate(49,78)"/>
<path d="M0 0 C2.31 0 4.62 0 7 0 C7 2.31 7 4.62 7 7 C4.69 7 2.38 7 0 7 C0 4.69 0 2.38 0 0 Z " fill="#EEEEEE" transform="translate(42,78)"/>
<path d="M0 0 C2.31 0 4.62 0 7 0 C7 2.31 7 4.62 7 7 C4.69 7 2.38 7 0 7 C0 4.69 0 2.38 0 0 Z " fill="#FDFDFD" transform="translate(35,78)"/>
<path d="M0 0 C2.31 0 4.62 0 7 0 C7 2.31 7 4.62 7 7 C4.69 7 2.38 7 0 7 C0 4.69 0 2.38 0 0 Z " fill="#EEEEEE" transform="translate(28,78)"/>
<path d="M0 0 C2.31 0 4.62 0 7 0 C7.125 2.875 7.125 2.875 7 6 C6.34 6.66 5.68 7.32 5 8 C2.375 7.625 2.375 7.625 0 7 C0 4.69 0 2.38 0 0 Z " fill="#FDFDFD" transform="translate(7,78)"/>
<path d="M0 0 C2.31 0 4.62 0 7 0 C7 2.31 7 4.62 7 7 C4.69 7 2.38 7 0 7 C0 4.69 0 2.38 0 0 Z " fill="#EEEEEE" transform="translate(0,78)"/>
<path d="M0 0 C2.31 0 4.62 0 7 0 C7 2.31 7 4.62 7 7 C4.69 7 2.38 7 0 7 C0 4.69 0 2.38 0 0 Z " fill="#FEFEFE" transform="translate(196,71)"/>
<path d="M0 0 C2.31 0 4.62 0 7 0 C7 2.31 7 4.62 7 7 C4.69 7 2.38 7 0 7 C0 4.69 0 2.38 0 0 Z " fill="#FDFDFD" transform="translate(168,71)"/>
<path d="M0 0 C2.31 0 4.62 0 7 0 C7 2.31 7 4.62 7 7 C4.69 7 2.38 7 0 7 C0 4.69 0 2.38 0 0 Z " fill="#FEFEFE" transform="translate(154,71)"/>
<path d="M0 0 C2.31 0 4.62 0 7 0 C7 2.31 7 4.62 7 7 C4.69 7 2.38 7 0 7 C0 4.69 0 2.38 0 0 Z " fill="#FEFEFE" transform="translate(56,71)"/>
<path d="M0 0 C2.31 0 4.62 0 7 0 C7 2.31 7 4.62 7 7 C4.69 7 2.38 7 0 7 C0 4.69 0 2.38 0 0 Z " fill="#EEEEEE" transform="translate(49,71)"/>
<path d="M0 0 C2.31 0 4.62 0 7 0 C7 2.31 7 4.62 7 7 C4.69 7 2.38 7 0 7 C0 4.69 0 2.38 0 0 Z " fill="#FEFEFE" transform="translate(42,71)"/>
<path d="M0 0 C2.31 0 4.62 0 7 0 C7 2.31 7 4.62 7 7 C4.69 7 2.38 7 0 7 C0 4.69 0 2.38 0 0 Z " fill="#FEFEFE" transform="translate(28,71)"/>
<path d="M0 0 C2.31 0 4.62 0 7 0 C7 2.31 7 4.62 7 7 C4.69 7 2.38 7 0 7 C0 4.69 0 2.38 0 0 Z " fill="#FEFEFE" transform="translate(0,71)"/>
<path d="M0 0 C2.31 0 4.62 0 7 0 C7 2.31 7 4.62 7 7 C4.69 7 2.38 7 0 7 C0 4.69 0 2.38 0 0 Z " fill="#FEFEFE" transform="translate(161,64)"/>
<path d="M0 0 C2.31 0 4.62 0 7 0 C7 2.31 7 4.62 7 7 C4.69 7 2.38 7 0 7 C0 4.69 0 2.38 0 0 Z " fill="#FEFEFE" transform="translate(147,64)"/>
<path d="M0 0 C2.31 0 4.62 0 7 0 C7 2.31 7 4.62 7 7 C4.69 7 2.38 7 0 7 C0 4.69 0 2.38 0 0 Z " fill="#FEFEFE" transform="translate(49,64)"/>
<path d="M0 0 C2.31 0 4.62 0 7 0 C7 2.31 7 4.62 7 7 C4.69 7 2.38 7 0 7 C0 4.69 0 2.38 0 0 Z " fill="#EEEEEE" transform="translate(42,64)"/>
<path d="M0 0 C2.31 0 4.62 0 7 0 C7 2.31 7 4.62 7 7 C4.69 7 2.38 7 0 7 C0 4.69 0 2.38 0 0 Z " fill="#FDFDFD" transform="translate(35,64)"/>
<path d="M0 0 C2.31 0 4.62 0 7 0 C7 2.31 7 4.62 7 7 C4.69 7 2.38 7 0 7 C0 4.69 0 2.38 0 0 Z " fill="#FDFDFD" transform="translate(7,64)"/>
<path d="M0 0 C2.31 0 4.62 0 7 0 C7 2.31 7 4.62 7 7 C4.69 7 2.38 7 0 7 C0 4.69 0 2.38 0 0 Z " fill="#EEEEEE" transform="translate(0,64)"/>
<path d="M0 0 C2.31 0 4.62 0 7 0 C7 2.31 7 4.62 7 7 C4.69 7 2.38 7 0 7 C0 4.69 0 2.38 0 0 Z " fill="#FDFDFD" transform="translate(154,57)"/>
<path d="M0 0 C2.31 0 4.62 0 7 0 C7 2.31 7 4.62 7 7 C4.69 7 2.38 7 0 7 C0 4.69 0 2.38 0 0 Z " fill="#FDFDFD" transform="translate(56,57)"/>
<path d="M0 0 C2.31 0 4.62 0 7 0 C7 2.31 7 4.62 7 7 C4.69 7 2.38 7 0 7 C0 4.69 0 2.38 0 0 Z " fill="#EEEEEE" transform="translate(49,57)"/>
<path d="M0 0 C2.31 0 4.62 0 7 0 C7 2.31 7 4.62 7 7 C4.69 7 2.38 7 0 7 C0 4.69 0 2.38 0 0 Z " fill="#FDFDFD" transform="translate(42,57)"/>
<path d="M0 0 C2.31 0 4.62 0 7 0 C7 2.31 7 4.62 7 7 C4.69 7 2.38 7 0 7 C0 4.69 0 2.38 0 0 Z " fill="#EFEFEF" transform="translate(35,57)"/>
<path d="M0 0 C2.31 0 4.62 0 7 0 C7 2.31 7 4.62 7 7 C4.69 7 2.38 7 0 7 C0 4.69 0 2.38 0 0 Z " fill="#EFEFEF" transform="translate(7,57)"/>
<path d="M0 0 C2.31 0 4.62 0 7 0 C7 2.31 7 4.62 7 7 C4.69 7 2.38 7 0 7 C0 4.69 0 2.38 0 0 Z " fill="#FDFDFD" transform="translate(0,57)"/>
<path d="M0 0 C2.31 0 4.62 0 7 0 C7 2.31 7 4.62 7 7 C4.69 7 2.38 7 0 7 C0 4.69 0 2.38 0 0 Z " fill="#FEFEFE" transform="translate(147,50)"/>
<path d="M0 0 C2.31 0 4.62 0 7 0 C7 2.31 7 4.62 7 7 C4.69 7 2.38 7 0 7 C0 4.69 0 2.38 0 0 Z " fill="#EEEEEE" transform="translate(56,50)"/>
<path d="M0 0 C2.31 0 4.62 0 7 0 C7 2.31 7 4.62 7 7 C4.69 7 2.38 7 0 7 C0 4.69 0 2.38 0 0 Z " fill="#FEFEFE" transform="translate(49,50)"/>
<path d="M0 0 C2.31 0 4.62 0 7 0 C7 2.31 7 4.62 7 7 C4.69 7 2.38 7 0 7 C0 4.69 0 2.38 0 0 Z " fill="#EEEEEE" transform="translate(42,50)"/>
<path d="M0 0 C2.31 0 4.62 0 7 0 C7 2.31 7 4.62 7 7 C4.69 7 2.38 7 0 7 C0 4.69 0 2.38 0 0 Z " fill="#FDFDFD" transform="translate(7,50)"/>
<path d="M0 0 C2.31 0 4.62 0 7 0 C7 2.31 7 4.62 7 7 C4.69 7 2.38 7 0 7 C0 4.69 0 2.38 0 0 Z " fill="#EEEEEE" transform="translate(0,50)"/>
<path d="M0 0 C2.31 0 4.62 0 7 0 C7 2.31 7 4.62 7 7 C4.69 7 2.38 7 0 7 C0 4.69 0 2.38 0 0 Z " fill="#EEEEEE" transform="translate(189,43)"/>
<path d="M0 0 C2.31 0 4.62 0 7 0 C7 2.31 7 4.62 7 7 C4.69 7 2.38 7 0 7 C0 4.69 0 2.38 0 0 Z " fill="#FEFEFE" transform="translate(182,43)"/>
<path d="M0 0 C2.31 0 4.62 0 7 0 C7 2.31 7 4.62 7 7 C4.69 7 2.38 7 0 7 C0 4.69 0 2.38 0 0 Z " fill="#EFEFEF" transform="translate(63,43)"/>
<path d="M0 0 C2.31 0 4.62 0 7 0 C7 2.31 7 4.62 7 7 C4.69 7 2.38 7 0 7 C0 4.69 0 2.38 0 0 Z " fill="#FEFEFE" transform="translate(56,43)"/>
<path d="M0 0 C2.31 0 4.62 0 7 0 C7 2.31 7 4.62 7 7 C4.69 7 2.38 7 0 7 C0 4.69 0 2.38 0 0 Z " fill="#EEEEEE" transform="translate(49,43)"/>
<path d="M0 0 C2.31 0 4.62 0 7 0 C7 2.31 7 4.62 7 7 C4.69 7 2.38 7 0 7 C0 4.69 0 2.38 0 0 Z " fill="#FEFEFE" transform="translate(14,43)"/>
<path d="M0 0 C2.31 0 4.62 0 7 0 C7 2.31 7 4.62 7 7 C4.69 7 2.38 7 0 7 C0 4.69 0 2.38 0 0 Z " fill="#EEEEEE" transform="translate(7,43)"/>
<path d="M0 0 C2.31 0 4.62 0 7 0 C7 2.31 7 4.62 7 7 C4.69 7 2.38 7 0 7 C0 4.69 0 2.38 0 0 Z " fill="#FEFEFE" transform="translate(0,43)"/>
<path d="M0 0 C2.31 0 4.62 0 7 0 C7 2.31 7 4.62 7 7 C4.69 7 2.38 7 0 7 C0 4.69 0 2.38 0 0 Z " fill="#FDFDFD" transform="translate(63,36)"/>
<path d="M0 0 C2.31 0 4.62 0 7 0 C7 2.31 7 4.62 7 7 C4.69 7 2.38 7 0 7 C0 4.69 0 2.38 0 0 Z " fill="#FEFEFE" transform="translate(21,36)"/>
<path d="M0 0 C2.31 0 4.62 0 7 0 C7 2.31 7 4.62 7 7 C4.69 7 2.38 7 0 7 C0 4.69 0 2.38 0 0 Z " fill="#EEEEEE" transform="translate(14,36)"/>
<path d="M0 0 C2.31 0 4.62 0 7 0 C7 2.31 7 4.62 7 7 C4.69 7 2.38 7 0 7 C0 4.69 0 2.38 0 0 Z " fill="#FDFDFD" transform="translate(7,36)"/>
<path d="M0 0 C2.31 0 4.62 0 7 0 C7 2.31 7 4.62 7 7 C4.69 7 2.38 7 0 7 C0 4.69 0 2.38 0 0 Z " fill="#EEEEEE" transform="translate(0,36)"/>
<path d="M0 0 C2.31 0 4.62 0 7 0 C7 2.31 7 4.62 7 7 C4.69 7 2.38 7 0 7 C0 4.69 0 2.38 0 0 Z " fill="#FEFEFE" transform="translate(126,29)"/>
<path d="M0 0 C2.31 0 4.62 0 7 0 C7 2.31 7 4.62 7 7 C4.69 7 2.38 7 0 7 C0 4.69 0 2.38 0 0 Z " fill="#FEFEFE" transform="translate(70,29)"/>
<path d="M0 0 C2.31 0 4.62 0 7 0 C7 2.31 7 4.62 7 7 C4.69 7 2.38 7 0 7 C0 4.69 0 2.38 0 0 Z " fill="#EEEEEE" transform="translate(21,29)"/>
<path d="M0 0 C2.31 0 4.62 0 7 0 C7 2.31 7 4.62 7 7 C4.69 7 2.38 7 0 7 C0 4.69 0 2.38 0 0 Z " fill="#FEFEFE" transform="translate(14,29)"/>
<path d="M0 0 C2.31 0 4.62 0 7 0 C7 2.31 7 4.62 7 7 C4.69 7 2.38 7 0 7 C0 4.69 0 2.38 0 0 Z " fill="#EFEFEF" transform="translate(7,29)"/>
<path d="M0 0 C2.31 0 4.62 0 7 0 C7 2.31 7 4.62 7 7 C4.69 7 2.38 7 0 7 C0 4.69 0 2.38 0 0 Z " fill="#FEFEFE" transform="translate(0,29)"/>
<path d="M0 0 C2.31 0 4.62 0 7 0 C7 2.31 7 4.62 7 7 C4.69 7 2.38 7 0 7 C0 4.69 0 2.38 0 0 Z " fill="#EEEEEE" transform="translate(182,22)"/>
<path d="M0 0 C2.31 0 4.62 0 7 0 C7 2.31 7 4.62 7 7 C4.69 7 2.38 7 0 7 C0 4.69 0 2.38 0 0 Z " fill="#FEFEFE" transform="translate(175,22)"/>
<path d="M0 0 C2.31 0 4.62 0 7 0 C7 2.31 7 4.62 7 7 C4.69 7 2.38 7 0 7 C0 4.69 0 2.38 0 0 Z " fill="#FEFEFE" transform="translate(119,22)"/>
<path d="M0 0 C2.31 0 4.62 0 7 0 C7 2.31 7 4.62 7 7 C4.69 7 2.38 7 0 7 C0 4.69 0 2.38 0 0 Z " fill="#EFEFEF" transform="translate(112,22)"/>
<path d="M0 0 C2.31 0 4.62 0 7 0 C7 2.31 7 4.62 7 7 C4.69 7 2.38 7 0 7 C0 4.69 0 2.38 0 0 Z " fill="#FEFEFE" transform="translate(77,22)"/>
<path d="M0 0 C2.31 0 4.62 0 7 0 C7 2.31 7 4.62 7 7 C4.69 7 2.38 7 0 7 C0 4.69 0 2.38 0 0 Z " fill="#FEFEFE" transform="translate(21,22)"/>
<path d="M0 0 C2.31 0 4.62 0 7 0 C7 2.31 7 4.62 7 7 C4.69 7 2.38 7 0 7 C0 4.69 0 2.38 0 0 Z " fill="#EEEEEE" transform="translate(14,22)"/>
<path d="M0 0 C2.31 0 4.62 0 7 0 C7 2.31 7 4.62 7 7 C4.69 7 2.38 7 0 7 C0 4.69 0 2.38 0 0 Z " fill="#FDFDFD" transform="translate(7,22)"/>
<path d="M0 0 C2.31 0 4.62 0 7 0 C7 2.31 7 4.62 7 7 C4.69 7 2.38 7 0 7 C0 4.69 0 2.38 0 0 Z " fill="#EEEEEE" transform="translate(0,22)"/>
<path d="M0 0 C2.31 0 4.62 0 7 0 C7 2.31 7 4.62 7 7 C4.69 7 2.38 7 0 7 C0 4.69 0 2.38 0 0 Z " fill="#EEEEEE" transform="translate(175,15)"/>
<path d="M0 0 C2.31 0 4.62 0 7 0 C7 2.31 7 4.62 7 7 C4.69 7 2.38 7 0 7 C0 4.69 0 2.38 0 0 Z " fill="#FEFEFE" transform="translate(42,15)"/>
<path d="M0 0 C2.31 0 4.62 0 7 0 C7 2.31 7 4.62 7 7 C4.69 7 2.38 7 0 7 C0 4.69 0 2.38 0 0 Z " fill="#EEEEEE" transform="translate(21,15)"/>
<path d="M0 0 C2.31 0 4.62 0 7 0 C7 2.31 7 4.62 7 7 C4.69 7 2.38 7 0 7 C0 4.69 0 2.38 0 0 Z " fill="#FEFEFE" transform="translate(14,15)"/>
<path d="M0 0 C2.31 0 4.62 0 7 0 C7 2.31 7 4.62 7 7 C4.69 7 2.38 7 0 7 C0 4.69 0 2.38 0 0 Z " fill="#EFEFEF" transform="translate(7,15)"/>
<path d="M0 0 C2.31 0 4.62 0 7 0 C7 2.31 7 4.62 7 7 C4.69 7 2.38 7 0 7 C0 4.69 0 2.38 0 0 Z " fill="#FEFEFE" transform="translate(0,15)"/>
<path d="M0 0 C2.31 0 4.62 0 7 0 C7 2.31 7 4.62 7 7 C4.69 7 2.38 7 0 7 C0 4.69 0 2.38 0 0 Z " fill="#EFEFEF" transform="translate(182,8)"/>
<path d="M0 0 C2.31 0 4.62 0 7 0 C7 2.31 7 4.62 7 7 C4.69 7 2.38 7 0 7 C0 4.69 0 2.38 0 0 Z " fill="#EFEFEF" transform="translate(154,8)"/>
<path d="M0 0 C2.31 0 4.62 0 7 0 C7 2.31 7 4.62 7 7 C4.69 7 2.38 7 0 7 C0 4.69 0 2.38 0 0 Z " fill="#FEFEFE" transform="translate(49,8)"/>
<path d="M0 0 C2.31 0 4.62 0 7 0 C7 2.31 7 4.62 7 7 C4.69 7 2.38 7 0 7 C0 4.69 0 2.38 0 0 Z " fill="#EEEEEE" transform="translate(42,8)"/>
<path d="M0 0 C2.31 0 4.62 0 7 0 C7 2.31 7 4.62 7 7 C4.69 7 2.38 7 0 7 C0 4.69 0 2.38 0 0 Z " fill="#EEEEEE" transform="translate(14,8)"/>
<path d="M0 0 C2.31 0 4.62 0 7 0 C7 2.31 7 4.62 7 7 C4.69 7 2.38 7 0 7 C0 4.69 0 2.38 0 0 Z " fill="#FDFDFD" transform="translate(7,8)"/>
<path d="M0 0 C2.31 0 4.62 0 7 0 C7 2.31 7 4.62 7 7 C4.69 7 2.38 7 0 7 C0 4.69 0 2.38 0 0 Z " fill="#EEEEEE" transform="translate(0,8)"/>
<path d="M0 0 C2.31 0 4.62 0 7 0 C7 2.31 7 4.62 7 7 C4.69 7 2.38 7 0 7 C0 4.69 0 2.38 0 0 Z " fill="#FDFDFD" transform="translate(126,1)"/>
<path d="M0 0 C2.31 0 4.62 0 7 0 C7 2.31 7 4.62 7 7 C4.69 7 2.38 7 0 7 C0 4.69 0 2.38 0 0 Z " fill="#FDFDFD" transform="translate(70,1)"/>
<path d="M0 0 C2.31 0 4.62 0 7 0 C7 2.31 7 4.62 7 7 C4.69 7 2.38 7 0 7 C0 4.69 0 2.38 0 0 Z " fill="#EEEEEE" transform="translate(49,1)"/>
<path d="M0 0 C2.31 0 4.62 0 7 0 C7 2.31 7 4.62 7 7 C4.69 7 2.38 7 0 7 C0 4.69 0 2.38 0 0 Z " fill="#FDFDFD" transform="translate(42,1)"/>
<path d="M0 0 C2.31 0 4.62 0 7 0 C7 2.31 7 4.62 7 7 C4.69 7 2.38 7 0 7 C0 4.69 0 2.38 0 0 Z " fill="#EEEEEE" transform="translate(7,1)"/>
<path d="M0 0 C2.31 0 4.62 0 7 0 C7 2.31 7 4.62 7 7 C4.69 7 2.38 7 0 7 C0 4.69 0 2.38 0 0 Z " fill="#FDFDFD" transform="translate(0,1)"/>
<path d="M0 0 C2.31 0 4.62 0 7 0 C7 2.31 7 4.62 7 7 C5.00045254 7.04254356 2.99958364 7.04080783 1 7 C0 6 0 6 -0.0625 2.9375 C-0.041875 1.968125 -0.02125 0.99875 0 0 Z " fill="#EEEEEE" transform="translate(189,184)"/>
<path d="M0 0 C2.31 0 4.62 0 7 0 C7 2.31 7 4.62 7 7 C5.00045254 7.04254356 2.99958364 7.04080783 1 7 C0 6 0 6 -0.0625 2.9375 C-0.041875 1.968125 -0.02125 0.99875 0 0 Z " fill="#EFEFEF" transform="translate(161,184)"/>
<path d="M0 0 C2.31 0 4.62 0 7 0 C7 2.31 7 4.62 7 7 C5.00045254 7.04254356 2.99958364 7.04080783 1 7 C0 6 0 6 -0.0625 2.9375 C-0.041875 1.968125 -0.02125 0.99875 0 0 Z " fill="#EEEEEE" transform="translate(196,177)"/>
<path d="M0 0 C2.31 0 4.62 0 7 0 C7 2.31 7 4.62 7 7 C5.00045254 7.04254356 2.99958364 7.04080783 1 7 C0 6 0 6 -0.0625 2.9375 C-0.041875 1.968125 -0.02125 0.99875 0 0 Z " fill="#EFEFEF" transform="translate(182,177)"/>
<path d="M0 0 C2.31 0 4.62 0 7 0 C7 2.31 7 4.62 7 7 C5.00045254 7.04254356 2.99958364 7.04080783 1 7 C0 6 0 6 -0.0625 2.9375 C-0.041875 1.968125 -0.02125 0.99875 0 0 Z " fill="#EEEEEE" transform="translate(168,177)"/>
<path d="M0 0 C2.31 0 4.62 0 7 0 C7 2.31 7 4.62 7 7 C5.00045254 7.04254356 2.99958364 7.04080783 1 7 C0 6 0 6 -0.0625 2.9375 C-0.041875 1.968125 -0.02125 0.99875 0 0 Z " fill="#EFEFEF" transform="translate(189,170)"/>
<path d="M0 0 C2.31 0 4.62 0 7 0 C7 2.31 7 4.62 7 7 C5.00045254 7.04254356 2.99958364 7.04080783 1 7 C0 6 0 6 -0.0625 2.9375 C-0.041875 1.968125 -0.02125 0.99875 0 0 Z " fill="#EFEFEF" transform="translate(175,170)"/>
<path d="M0 0 C2.31 0 4.62 0 7 0 C7 2.31 7 4.62 7 7 C5.00045254 7.04254356 2.99958364 7.04080783 1 7 C0 6 0 6 -0.0625 2.9375 C-0.041875 1.968125 -0.02125 0.99875 0 0 Z " fill="#EFEFEF" transform="translate(161,170)"/>
<path d="M0 0 C2.31 0 4.62 0 7 0 C7 2.31 7 4.62 7 7 C5.00045254 7.04254356 2.99958364 7.04080783 1 7 C0 6 0 6 -0.0625 2.9375 C-0.041875 1.968125 -0.02125 0.99875 0 0 Z " fill="#EFEFEF" transform="translate(35,170)"/>
<path d="M0 0 C2.31 0 4.62 0 7 0 C7 2.31 7 4.62 7 7 C5.00045254 7.04254356 2.99958364 7.04080783 1 7 C0 6 0 6 -0.0625 2.9375 C-0.041875 1.968125 -0.02125 0.99875 0 0 Z " fill="#EEEEEE" transform="translate(21,170)"/>
<path d="M0 0 C2.31 0 4.62 0 7 0 C7.04254356 1.99954746 7.04080783 4.00041636 7 6 C6 7 6 7 2.9375 7.0625 C1.4834375 7.0315625 1.4834375 7.0315625 0 7 C0 4.69 0 2.38 0 0 Z " fill="#EFEFEF" transform="translate(7,170)"/>
<path d="M0 0 C1.4540625 0.0309375 1.4540625 0.0309375 2.9375 0.0625 C2.9375 2.3725 2.9375 4.6825 2.9375 7.0625 C0.6275 7.0625 -1.6825 7.0625 -4.0625 7.0625 C-4.10504356 5.06295254 -4.10330783 3.06208364 -4.0625 1.0625 C-3.0625 0.0625 -3.0625 0.0625 0 0 Z " fill="#EEEEEE" transform="translate(193.0625,140.9375)"/>
<path d="M0 0 C1.4540625 0.0309375 1.4540625 0.0309375 2.9375 0.0625 C2.9375 2.3725 2.9375 4.6825 2.9375 7.0625 C0.6275 7.0625 -1.6825 7.0625 -4.0625 7.0625 C-4.10504356 5.06295254 -4.10330783 3.06208364 -4.0625 1.0625 C-3.0625 0.0625 -3.0625 0.0625 0 0 Z " fill="#EEEEEE" transform="translate(11.0625,140.9375)"/>
<path d="M0 0 C1.4540625 0.0309375 1.4540625 0.0309375 2.9375 0.0625 C2.9375 2.3725 2.9375 4.6825 2.9375 7.0625 C0.6275 7.0625 -1.6825 7.0625 -4.0625 7.0625 C-4.10504356 5.06295254 -4.10330783 3.06208364 -4.0625 1.0625 C-3.0625 0.0625 -3.0625 0.0625 0 0 Z " fill="#EFEFEF" transform="translate(193.0625,126.9375)"/>
<path d="M0 0 C1.4540625 0.0309375 1.4540625 0.0309375 2.9375 0.0625 C2.9375 2.3725 2.9375 4.6825 2.9375 7.0625 C0.6275 7.0625 -1.6825 7.0625 -4.0625 7.0625 C-4.10504356 5.06295254 -4.10330783 3.06208364 -4.0625 1.0625 C-3.0625 0.0625 -3.0625 0.0625 0 0 Z " fill="#EEEEEE" transform="translate(200.0625,119.9375)"/>
<path d="M0 0 C1.4540625 0.0309375 1.4540625 0.0309375 2.9375 0.0625 C2.9375 2.3725 2.9375 4.6825 2.9375 7.0625 C0.6275 7.0625 -1.6825 7.0625 -4.0625 7.0625 C-4.10504356 5.06295254 -4.10330783 3.06208364 -4.0625 1.0625 C-3.0625 0.0625 -3.0625 0.0625 0 0 Z " fill="#EEEEEE" transform="translate(165.0625,112.9375)"/>
<path d="M0 0 C1.4540625 0.0309375 1.4540625 0.0309375 2.9375 0.0625 C2.9375 2.3725 2.9375 4.6825 2.9375 7.0625 C0.6275 7.0625 -1.6825 7.0625 -4.0625 7.0625 C-4.10504356 5.06295254 -4.10330783 3.06208364 -4.0625 1.0625 C-3.0625 0.0625 -3.0625 0.0625 0 0 Z " fill="#EFEFEF" transform="translate(165.0625,84.9375)"/>
<path d="M0 0 C1.4540625 0.0309375 1.4540625 0.0309375 2.9375 0.0625 C2.9375 2.3725 2.9375 4.6825 2.9375 7.0625 C0.6275 7.0625 -1.6825 7.0625 -4.0625 7.0625 C-4.10504356 5.06295254 -4.10330783 3.06208364 -4.0625 1.0625 C-3.0625 0.0625 -3.0625 0.0625 0 0 Z " fill="#EEEEEE" transform="translate(151.0625,84.9375)"/>
<path d="M0 0 C1.4540625 0.0309375 1.4540625 0.0309375 2.9375 0.0625 C2.9375 2.3725 2.9375 4.6825 2.9375 7.0625 C0.6275 7.0625 -1.6825 7.0625 -4.0625 7.0625 C-4.10504356 5.06295254 -4.10330783 3.06208364 -4.0625 1.0625 C-3.0625 0.0625 -3.0625 0.0625 0 0 Z " fill="#EEEEEE" transform="translate(144.0625,77.9375)"/>
<path d="M0 0 C2.31 0 4.62 0 7 0 C7 2.31 7 4.62 7 7 C5.00045254 7.04254356 2.99958364 7.04080783 1 7 C0 6 0 6 -0.0625 2.9375 C-0.041875 1.968125 -0.02125 0.99875 0 0 Z " fill="#EEEEEE" transform="translate(196,36)"/>
<path d="M0 0 C2.31 0 4.62 0 7 0 C7 2.31 7 4.62 7 7 C5.00045254 7.04254356 2.99958364 7.04080783 1 7 C0 6 0 6 -0.0625 2.9375 C-0.041875 1.968125 -0.02125 0.99875 0 0 Z " fill="#EEEEEE" transform="translate(140,36)"/>
<path d="M0 0 C2.31 0 4.62 0 7 0 C7 2.31 7 4.62 7 7 C5.00045254 7.04254356 2.99958364 7.04080783 1 7 C0 6 0 6 -0.0625 2.9375 C-0.041875 1.968125 -0.02125 0.99875 0 0 Z " fill="#EEEEEE" transform="translate(175,29)"/>
<path d="M0 0 C2.31 0 4.62 0 7 0 C7 2.31 7 4.62 7 7 C5.00045254 7.04254356 2.99958364 7.04080783 1 7 C0 6 0 6 -0.0625 2.9375 C-0.041875 1.968125 -0.02125 0.99875 0 0 Z " fill="#EEEEEE" transform="translate(196,22)"/>
<path d="M0 0 C1.4540625 0.0309375 1.4540625 0.0309375 2.9375 0.0625 C2.9375 2.3725 2.9375 4.6825 2.9375 7.0625 C0.6275 7.0625 -1.6825 7.0625 -4.0625 7.0625 C-4.10504356 5.06295254 -4.10330783 3.06208364 -4.0625 1.0625 C-3.0625 0.0625 -3.0625 0.0625 0 0 Z " fill="#EEEEEE" transform="translate(193.0625,14.9375)"/>
<path d="M0 0 C2.31 0 4.62 0 7 0 C7 2.31 7 4.62 7 7 C5.00045254 7.04254356 2.99958364 7.04080783 1 7 C0 6 0 6 -0.0625 2.9375 C-0.041875 1.968125 -0.02125 0.99875 0 0 Z " fill="#EEEEEE" transform="translate(168,8)"/>
<path d="M0 0 C2.31 0 4.62 0 7 0 C7.04254356 1.99954746 7.04080783 4.00041636 7 6 C6 7 6 7 2.9375 7.0625 C1.4834375 7.0315625 1.4834375 7.0315625 0 7 C0 4.69 0 2.38 0 0 Z " fill="#EEEEEE" transform="translate(56,8)"/>
<path d="M0 0 C2.31 0 4.62 0 7 0 C7.04254356 1.99954746 7.04080783 4.00041636 7 6 C6 7 6 7 2.9375 7.0625 C1.4834375 7.0315625 1.4834375 7.0315625 0 7 C0 4.69 0 2.38 0 0 Z " fill="#EEEEEE" transform="translate(28,8)"/>
<path d="M0 0 C2.31 0 4.62 0 7 0 C7 2.31 7 4.62 7 7 C5.00045254 7.04254356 2.99958364 7.04080783 1 7 C0 6 0 6 -0.0625 2.9375 C-0.041875 1.968125 -0.02125 0.99875 0 0 Z " fill="#EEEEEE" transform="translate(175,1)"/>
<path d="M0 0 C2.31 0 4.62 0 7 0 C7 2.31 7 4.62 7 7 C5.00045254 7.04254356 2.99958364 7.04080783 1 7 C0 6 0 6 -0.0625 2.9375 C-0.041875 1.968125 -0.02125 0.99875 0 0 Z " fill="#EFEFEF" transform="translate(161,1)"/>
<path d="M0 0 C2.31 0 4.62 0 7 0 C7 2.31 7 4.62 7 7 C5.00045254 7.04254356 2.99958364 7.04080783 1 7 C0 6 0 6 -0.0625 2.9375 C-0.041875 1.968125 -0.02125 0.99875 0 0 Z " fill="#EEEEEE" transform="translate(147,1)"/>
<path d="M0 0 C2.31 0 4.62 0 7 0 C7 2.31 7 4.62 7 7 C5.00045254 7.04254356 2.99958364 7.04080783 1 7 C0 6 0 6 -0.0625 2.9375 C-0.041875 1.968125 -0.02125 0.99875 0 0 Z " fill="#EEEEEE" transform="translate(63,1)"/>
<path d="M0 0 C2.31 0 4.62 0 7 0 C7 2.31 7 4.62 7 7 C5.00045254 7.04254356 2.99958364 7.04080783 1 7 C0 6 0 6 -0.0625 2.9375 C-0.041875 1.968125 -0.02125 0.99875 0 0 Z " fill="#EEEEEE" transform="translate(35,1)"/>
<path d="M0 0 C2.31 0 4.62 0 7 0 C7 2.31 7 4.62 7 7 C5.00045254 7.04254356 2.99958364 7.04080783 1 7 C0 6 0 6 -0.0625 2.9375 C-0.041875 1.968125 -0.02125 0.99875 0 0 Z " fill="#EEEEEE" transform="translate(21,1)"/>
<path d="M0 0 C1.4540625 0.0309375 1.4540625 0.0309375 2.9375 0.0625 C2.9375 2.3725 2.9375 4.6825 2.9375 7.0625 C0.93795254 7.10504356 -1.06291636 7.10330783 -3.0625 7.0625 C-4.0625 6.0625 -4.0625 6.0625 -4.1875 3.5625 C-4.00295237 -0.12845252 -3.76342282 0.07680455 0 0 Z " fill="#EEEEEE" transform="translate(200.0625,105.9375)"/>
<path d="M0 0 C1.98 0 3.96 0 6 0 C6.33 2.31 6.66 4.62 7 7 C4.69 7 2.38 7 0 7 C0 4.69 0 2.38 0 0 Z " fill="#FBFBFB" transform="translate(63,64)"/>
<path d="M0 0 C1.4540625 0.0309375 1.4540625 0.0309375 2.9375 0.0625 C2.9375 2.3725 2.9375 4.6825 2.9375 7.0625 C0.93795254 7.10504356 -1.06291636 7.10330783 -3.0625 7.0625 C-4.0625 6.0625 -4.0625 6.0625 -4.1875 3.5625 C-4.00295237 -0.12845252 -3.76342282 0.07680455 0 0 Z " fill="#EEEEEE" transform="translate(193.0625,56.9375)"/>
<path d="M0 0 C1.4540625 0.0309375 1.4540625 0.0309375 2.9375 0.0625 C2.9375 2.3725 2.9375 4.6825 2.9375 7.0625 C0.93795254 7.10504356 -1.06291636 7.10330783 -3.0625 7.0625 C-4.0625 6.0625 -4.0625 6.0625 -4.1875 3.5625 C-4.00295237 -0.12845252 -3.76342282 0.07680455 0 0 Z " fill="#EFEFEF" transform="translate(193.0625,28.9375)"/>
<path d="M0 0 C2.31 0 4.62 0 7 0 C7 1.98 7 3.96 7 6 C4.36 6.33 1.72 6.66 -1 7 C-0.67 4.69 -0.34 2.38 0 0 Z " fill="#FCFCFC" transform="translate(84,1)"/>
<path d="M0 0 C3.63 0 7.26 0 11 0 C9.68 0.33 8.36 0.66 7 1 C7 2.65 7 4.3 7 6 C4.69 6 2.38 6 0 6 C0 4.02 0 2.04 0 0 Z " fill="#FDFDFD" transform="translate(98,185)"/>
<path d="M0 0 C2.31 0 4.62 0 7 0 C7 2.31 7 4.62 7 7 C5.0085944 7.38133299 3.00720923 7.71325582 1 8 C0 7 0 7 -0.0625 3.4375 C-0.041875 2.303125 -0.02125 1.16875 0 0 Z " fill="#EEEEEE" transform="translate(196,148)"/>
<path d="M0 0 C0.78375 0.04125 1.5675 0.0825 2.375 0.125 C2.375 2.435 2.375 4.745 2.375 7.125 C0.065 7.125 -2.245 7.125 -4.625 7.125 C-4.75 4.75 -4.75 4.75 -4.625 2.125 C-2.625 0.125 -2.625 0.125 0 0 Z " fill="#FEFEFE" transform="translate(46.625,42.875)"/>
<path d="M0 0 C0.78375 0.04125 1.5675 0.0825 2.375 0.125 C2.375 2.435 2.375 4.745 2.375 7.125 C0.065 7.125 -2.245 7.125 -4.625 7.125 C-4.75 4.75 -4.75 4.75 -4.625 2.125 C-2.625 0.125 -2.625 0.125 0 0 Z " fill="#FEFEFE" transform="translate(53.625,35.875)"/>
<path d="M0 0 C1.65 0 3.3 0 5 0 C5 0.66 5 1.32 5 2 C5.66 2 6.32 2 7 2 C7 3.65 7 5.3 7 7 C4.69 7 2.38 7 0 7 C0 4.69 0 2.38 0 0 Z " fill="#FAFAFA" transform="translate(63,177)"/>
<path d="M0 0 C0 2.31 0 4.62 0 7 C-2.31 7 -4.62 7 -7 7 C-7 5.02 -7 3.04 -7 1 C-2.25 0 -2.25 0 0 0 Z " fill="#EFEFEF" transform="translate(189,148)"/>
<path d="M0 0 C2.31 0.33 4.62 0.66 7 1 C7 2.98 7 4.96 7 7 C4.69 7 2.38 7 0 7 C0 4.69 0 2.38 0 0 Z " fill="#EEEEEE" transform="translate(14,148)"/>
<path d="M0 0 C1.98 0 3.96 0 6 0 C6 2.31 6 4.62 6 7 C3.69 7 1.38 7 -1 7 C-0.67 4.69 -0.34 2.38 0 0 Z " fill="#EDEDED" transform="translate(190,71)"/>
<path d="M0 0 C0 2.31 0 4.62 0 7 C-1.85625 7.1546875 -1.85625 7.1546875 -3.75 7.3125 C-7.2792866 7.73801682 -9.37160966 8.48112592 -12 11 C-12.33 10.34 -12.66 9.68 -13 9 C-11.02297434 7.49710267 -9.0435417 5.99758658 -7.0625 4.5 C-6.49853516 4.07074219 -5.93457031 3.64148438 -5.35351562 3.19921875 C-1.11328125 0 -1.11328125 0 0 0 Z " fill="#DCDCDC" transform="translate(161,162)"/>
<path d="M0 0 C2.31 0.33 4.62 0.66 7 1 C7 2.98 7 4.96 7 7 C4.69 7 2.38 7 0 7 C0 4.69 0 2.38 0 0 Z " fill="#EEEEEE" transform="translate(196,162)"/>
<path d="M0 0 C2.31 0 4.62 0 7 0 C7 1.98 7 3.96 7 6 C4.69 6.33 2.38 6.66 0 7 C0 4.69 0 2.38 0 0 Z " fill="#EEEEEE" transform="translate(175,156)"/>
<path d="M0 0 C2.31 0 4.62 0 7 0 C7 1.98 7 3.96 7 6 C4.69 6.33 2.38 6.66 0 7 C0 4.69 0 2.38 0 0 Z " fill="#EEEEEE" transform="translate(7,156)"/>
<path d="M0 0 C0 1.98 0 3.96 0 6 C-2.31 6 -4.62 6 -7 6 C-7 4.02 -7 2.04 -7 0 C-2.25 -1.125 -2.25 -1.125 0 0 Z " fill="#EEEEEE" transform="translate(7,149)"/>
<path d="M0 0 C3.24208567 0.35049575 4.61527704 0.56221181 6.8125 3.0625 C7.204375 3.701875 7.59625 4.34125 8 5 C7.67 5.66 7.34 6.32 7 7 C4.69 7 2.38 7 0 7 C0 4.69 0 2.38 0 0 Z " fill="#EDEDED" transform="translate(21,141)"/>
<path d="M0 0 C2.31 0 4.62 0 7 0 C7 1.98 7 3.96 7 6 C4.69 6 2.38 6 0 6 C0 4.02 0 2.04 0 0 Z " fill="#EEEEEE" transform="translate(182,163)"/>
<path d="M0 0 C2.31 0 4.62 0 7 0 C7 1.98 7 3.96 7 6 C4.69 6 2.38 6 0 6 C0 4.02 0 2.04 0 0 Z " fill="#EEEEEE" transform="translate(168,163)"/>
<path d="M0 0 C2.31 0 4.62 0 7 0 C7 1.98 7 3.96 7 6 C4.69 6 2.38 6 0 6 C0 4.02 0 2.04 0 0 Z " fill="#EDEDED" transform="translate(28,163)"/>
<path d="M0 0 C2.31 0 4.62 0 7 0 C7 1.98 7 3.96 7 6 C4.69 6 2.38 6 0 6 C0 4.02 0 2.04 0 0 Z " fill="#EDEDED" transform="translate(14,163)"/>
<path d="M0 0 C2.31 0 4.62 0 7 0 C7 1.98 7 3.96 7 6 C4.69 6 2.38 6 0 6 C0 4.02 0 2.04 0 0 Z " fill="#EDEDED" transform="translate(0,163)"/>
<path d="M0 0 C2.31 0 4.62 0 7 0 C7 1.98 7 3.96 7 6 C4.69 6 2.38 6 0 6 C0 4.02 0 2.04 0 0 Z " fill="#EEEEEE" transform="translate(189,156)"/>
<path d="M0 0 C2.31 0 4.62 0 7 0 C7 1.98 7 3.96 7 6 C4.69 6 2.38 6 0 6 C0 4.02 0 2.04 0 0 Z " fill="#EDEDED" transform="translate(21,156)"/>
<path d="M0 0 C2.31 0 4.62 0 7 0 C7 1.98 7 3.96 7 6 C4.69 6 2.38 6 0 6 C0 4.02 0 2.04 0 0 Z " fill="#EDEDED" transform="translate(196,135)"/>
<path d="M0 0 C2.31 0 4.62 0 7 0 C7 1.98 7 3.96 7 6 C4.69 6 2.38 6 0 6 C0 4.02 0 2.04 0 0 Z " fill="#EDEDED" transform="translate(0,135)"/>
<path d="M0 0 C2.31 0 4.62 0 7 0 C7 1.32 7 2.64 7 4 C8.98 3.67 10.96 3.34 13 3 C11 5 11 5 8.3984375 5.1953125 C7.40070313 5.17210938 6.40296875 5.14890625 5.375 5.125 C3.87066406 5.09792969 3.87066406 5.09792969 2.3359375 5.0703125 C1.56507812 5.04710938 0.79421875 5.02390625 0 5 C0 3.35 0 1.7 0 0 Z " fill="#E8E8E8" transform="translate(105,99)"/>
<path d="M0 0 C1.98 0 3.96 0 6 0 C6 2.31 6 4.62 6 7 C4.02 7 2.04 7 0 7 C0 4.69 0 2.38 0 0 Z " fill="#EFEFEF" transform="translate(7,99)"/>
<path d="M0 0 C-0.66 0.66 -1.32 1.32 -2 2 C-2 2.99 -2 3.98 -2 5 C-4.31 5 -6.62 5 -9 5 C-9 3.02 -9 1.04 -9 -1 C-5.79937313 -2.60031344 -3.27728194 -1.03173691 0 0 Z " fill="#E5E5E5" transform="translate(93,94)"/>
<path d="M0 0 C1.98 0 3.96 0 6 0 C6 2.31 6 4.62 6 7 C4.02 7 2.04 7 0 7 C0 4.69 0 2.38 0 0 Z " fill="#FEFEFE" transform="translate(175,92)"/>
<path d="M0 0 C1.65 0 3.3 0 5 0 C5 2.31 5 4.62 5 7 C2.36 7.66 -0.28 8.32 -3 9 C-2.01 6.03 -1.02 3.06 0 0 Z " fill="#E0E0E0" transform="translate(135,71)"/>
<path d="M0 0 C2.31 0 4.62 0 7 0 C7 1.98 7 3.96 7 6 C4.69 6 2.38 6 0 6 C0 4.02 0 2.04 0 0 Z " fill="#EDEDED" transform="translate(98,22)"/>
<path d="M0 0 C2.31 0 4.62 0 7 0 C7 1.98 7 3.96 7 6 C4.69 6 2.38 6 0 6 C0 4.02 0 2.04 0 0 Z " fill="#FEFEFE" transform="translate(112,1)"/>
<path d="M0 0 C2.31 0 4.62 0 7 0 C7 1.32 7 2.64 7 4 C8.32 4.33 9.64 4.66 11 5 C6.38 5 1.76 5 -3 5 C-2.01 4.67 -1.02 4.34 0 4 C0 2.68 0 1.36 0 0 Z " fill="#FDFDFD" transform="translate(98,1)"/>
<path d="M0 0 C2.33944736 0.28730055 4.6739143 0.61936779 7 1 C6.01 2.98 5.02 4.96 4 7 C2.35 7 0.7 7 -1 7 C-1.04254356 5.00045254 -1.04080783 2.99958364 -1 1 C-0.67 0.67 -0.34 0.34 0 0 Z " fill="#EAEAEA" transform="translate(36,127)"/>
<path d="M0 0 C0.66 0.33 1.32 0.66 2 1 C0.7934375 2.0828125 0.7934375 2.0828125 -0.4375 3.1875 C-3.02292072 6.02515689 -3.68042813 7.27166147 -4 11 C-5.36125 11.433125 -5.36125 11.433125 -6.75 11.875 C-9.33098291 12.76841716 -11.58842326 13.75227117 -14 15 C-9.59156563 9.70987876 -4.92440206 4.81191572 0 0 Z " fill="#DBDBDB" transform="translate(53,32)"/>
<path d="M0 0 C0 2.31 0 4.62 0 7 C-2.31 7 -4.62 7 -7 7 C-6.22006468 2.47637516 -4.81844319 0 0 0 Z " fill="#FEFEFE" transform="translate(133,85)"/>
<path d="M0 0 C0.33 0 0.66 0 1 0 C1.13277344 0.74765625 1.26554687 1.4953125 1.40234375 2.265625 C1.57894531 3.25046875 1.75554688 4.2353125 1.9375 5.25 C2.19853516 6.71179688 2.19853516 6.71179688 2.46484375 8.203125 C2.90379729 10.49721795 3.40348592 12.74291971 4 15 C2.35 15 0.7 15 -1 15 C-1.10251672 9.87416389 -1.03590199 5.05002222 0 0 Z " fill="#DCDCDC" transform="translate(15,112)"/>
<path d="M0 0 C2.475 0.495 2.475 0.495 5 1 C5.33 2.98 5.66 4.96 6 7 C4.02 7 2.04 7 0 7 C0 4.69 0 2.38 0 0 Z " fill="#EEEEEE" transform="translate(175,85)"/>
<path d="M0 0 C2.01136276 2.55991624 3.62845496 5.04590299 5 8 C4 9 4 9 0.9375 9.0625 C-0.031875 9.041875 -1.00125 9.02125 -2 9 C-2.25 3.375 -2.25 3.375 0 0 Z " fill="#E0E0E0" transform="translate(72,76)"/>
<path d="M0 0 C2.31 1.65 4.62 3.3 7 5 C6.67 5.66 6.34 6.32 6 7 C3.69 7 1.38 7 -1 7 C-1.04254356 5.00045254 -1.04080783 2.99958364 -1 1 C-0.67 0.67 -0.34 0.34 0 0 Z " fill="#E3E3E3" transform="translate(43,162)"/>
<path d="M0 0 C1.65 0 3.3 0 5 0 C5.33 2.31 5.66 4.62 6 7 C4.02 7 2.04 7 0 7 C0 4.69 0 2.38 0 0 Z " fill="#FEFEFE" transform="translate(7,92)"/>
<path d="M0 0 C-0.66 1.98 -1.32 3.96 -2 6 C-4.31 6 -6.62 6 -9 6 C-9 5.34 -9 4.68 -9 4 C-9.66 3.67 -10.32 3.34 -11 3 C-9.54293274 2.49632243 -8.08429904 1.99717444 -6.625 1.5 C-5.81289062 1.2215625 -5.00078125 0.943125 -4.1640625 0.65625 C-2 0 -2 0 0 0 Z " fill="#DDDDDD" transform="translate(135,178)"/>
<path d="M0 0 C3.8063457 0.67170806 7.35206816 1.72746564 11 3 C10.01 3.495 10.01 3.495 9 4 C9 4.66 9 5.32 9 6 C6.69 6 4.38 6 2 6 C2 4.35 2 2.7 2 1 C1.34 0.67 0.68 0.34 0 0 Z " fill="#E2E2E2" transform="translate(68,178)"/>
<path d="M0 0 C2.31 1.98 4.62 3.96 7 6 C4 8 4 8 1.3125 7.625 C0.549375 7.41875 -0.21375 7.2125 -1 7 C-1.04254356 5.00045254 -1.04080783 2.99958364 -1 1 C-0.67 0.67 -0.34 0.34 0 0 Z " fill="#DCDCDC" transform="translate(36,155)"/>
<path d="M0 0 C2.97 0 5.94 0 9 0 C9.66 2.31 10.32 4.62 11 7 C7.2089881 5.55049545 3.6125362 3.84827434 0 2 C0 1.34 0 0.68 0 0 Z " fill="#E2E2E2" transform="translate(131,99)"/>
<path d="M0 0 C1.65 0 3.3 0 5 0 C5 2.31 5 4.62 5 7 C3.35 7 1.7 7 0 7 C0 4.69 0 2.38 0 0 Z " fill="#FCFCFC" transform="translate(23,92)"/>
<path d="M0 0 C1.65 0 3.3 0 5 0 C3.68 4.29 2.36 8.58 1 13 C0.67 13 0.34 13 0 13 C0 8.71 0 4.42 0 0 Z " fill="#F1F1F1" transform="translate(14,64)"/>
<path d="M0 0 C2.31 0 4.62 0 7 0 C7 1.65 7 3.3 7 5 C4.69 5 2.38 5 0 5 C0 3.35 0 1.7 0 0 Z " fill="#FEFEFE" transform="translate(98,17)"/>
<path d="M0 0 C2.31 0 4.62 0 7 0 C7 1.32 7 2.64 7 4 C4.35261084 5.4606285 3.10551666 6 0 6 C0 4.02 0 2.04 0 0 Z " fill="#EDEDED" transform="translate(91,1)"/>
<path d="M0 0 C1.65 1.65 3.3 3.3 5 5 C4.67 5.66 4.34 6.32 4 7 C2.02 7 0.04 7 -2 7 C-2 5.02 -2 3.04 -2 1 C-1.34 0.67 -0.68 0.34 0 0 Z " fill="#E4E4E4" transform="translate(30,148)"/>
<path d="M0 0 C1.4540625 0.0309375 1.4540625 0.0309375 2.9375 0.0625 C2.9375 1.7125 2.9375 3.3625 2.9375 5.0625 C0.9575 5.0625 -1.0225 5.0625 -3.0625 5.0625 C-3.625 3.125 -3.625 3.125 -4.0625 1.0625 C-3.0625 0.0625 -3.0625 0.0625 0 0 Z " fill="#EEEEEE" transform="translate(95.0625,185.9375)"/>
<path d="M0 0 C0 2.31 0 4.62 0 7 C-1.98 7 -3.96 7 -6 7 C-6 4 -6 4 -4.125 1.8125 C-2 0 -2 0 0 0 Z " fill="#EEEEEE" transform="translate(154,170)"/>
<path d="M0 0 C1.32 0 2.64 0 4 0 C4.33 2.64 4.66 5.28 5 8 C3.35 7.67 1.7 7.34 0 7 C0 4.69 0 2.38 0 0 Z " fill="#FCFCFC" transform="translate(175,78)"/>
<path d="M0 0 C2.31 0 4.62 0 7 0 C7 2.97 7 5.94 7 9 C4.04070881 6.24479785 1.96318174 3.53372712 0 0 Z " fill="#DFDFDF" transform="translate(168,36)"/>
<path d="M0 0 C2.31 0 4.62 0 7 0 C7 1.98 7 3.96 7 6 C4.69 5.34 2.38 4.68 0 4 C0 2.68 0 1.36 0 0 Z " fill="#EDEDED" transform="translate(105,1)"/>
<path d="M0 0 C1.98 0 3.96 0 6 0 C6 0.99 6 1.98 6 3 C3.5 5.1875 3.5 5.1875 1 7 C0 6 0 6 -0.0625 2.9375 C-0.041875 1.968125 -0.02125 0.99875 0 0 Z " fill="#E1E1E1" transform="translate(35,29)"/>
<path d="M0 0 C2.97 0 5.94 0 9 0 C9 1.65 9 3.3 9 5 C8.01 5.495 8.01 5.495 7 6 C5.83054208 5.19152271 4.66449539 4.37810888 3.5 3.5625 C2.8503125 3.11003906 2.200625 2.65757813 1.53125 2.19140625 C1.0259375 1.79824219 0.520625 1.40507812 0 1 C0 0.67 0 0.34 0 0 Z " fill="#D9D9D9" transform="translate(152,22)"/>
<path d="M0 0 C2 2 2 2 2 5 C0.33720673 6.0064275 -1.32983484 7.00585407 -3 8 C-4.32793606 10.06700655 -4.32793606 10.06700655 -5 12 C-6.32 11.67 -7.64 11.34 -9 11 C-7.88625 9.948125 -7.88625 9.948125 -6.75 8.875 C-4.02182777 6.02281994 -2.08697046 3.3236937 0 0 Z " fill="#DBDBDB" transform="translate(131,80)"/>
<path d="M0 0 C0.66 0.33 1.32 0.66 2 1 C2 3.31 2 5.62 2 8 C-0.31 7.67 -2.62 7.34 -5 7 C-3.35 4.69 -1.7 2.38 0 0 Z " fill="#E2E2E2" transform="translate(173,148)"/>
<path d="M0 0 C2.31 1.65 4.62 3.3 7 5 C6.67 5.66 6.34 6.32 6 7 C4.02 7 2.04 7 0 7 C0 4.69 0 2.38 0 0 Z " fill="#E4E4E4" transform="translate(77,85)"/>
<path d="M0 0 C2.31 0 4.62 0 7 0 C7.33 0.99 7.66 1.98 8 3 C7 4 7 4 3.4375 4.0625 C2.303125 4.041875 1.16875 4.02125 0 4 C0 2.68 0 1.36 0 0 Z " fill="#FCFCFC" transform="translate(112,18)"/>
<path d="M0 0 C1.32 0 2.64 0 4 0 C3.01 3.3 2.02 6.6 1 10 C-1.29404844 6.55892734 -1.26293056 5.03160191 -1 1 C-0.67 0.67 -0.34 0.34 0 0 Z " fill="#D4D4D4" transform="translate(176,113)"/>
<path d="M0 0 C0.33 0 0.66 0 1 0 C1 2.31 1 4.62 1 7 C-1.375 7.625 -1.375 7.625 -4 8 C-4.66 7.34 -5.32 6.68 -6 6 C-5.38125 5.7525 -4.7625 5.505 -4.125 5.25 C-1.64931313 3.79371361 -1.04874998 2.62187494 0 0 Z " fill="#D8D8D8" transform="translate(167,155)"/>
<path d="M0 0 C1.65 0 3.3 0 5 0 C5 2.31 5 4.62 5 7 C4.01 7 3.02 7 2 7 C0.5393715 4.35261084 0 3.10551666 0 0 Z " fill="#ECECEC" transform="translate(23,99)"/>
<path d="M0 0 C2.31 0 4.62 0 7 0 C7 2.31 7 4.62 7 7 C5.83040013 6.02433888 4.66438823 5.044375 3.5 4.0625 C2.8503125 3.51722656 2.200625 2.97195312 1.53125 2.41015625 C1.0259375 1.94480469 0.520625 1.47945312 0 1 C0 0.67 0 0.34 0 0 Z " fill="#DADADA" transform="translate(161,29)"/>
<path d="M0 0 C1.98 0 3.96 0 6 0 C6 1.32 6 2.64 6 4 C3.69 4 1.38 4 -1 4 C-0.67 2.68 -0.34 1.36 0 0 Z " fill="#FDFDFD" transform="translate(85,18)"/>
<path d="M0 0 C0.99 0.33 1.98 0.66 3 1 C3 3.31 3 5.62 3 8 C1.68 8.33 0.36 8.66 -1 9 C-0.67 6.03 -0.34 3.06 0 0 Z " fill="#FDFDFD" transform="translate(137,63)"/>
<path d="M0 0 C2.97 1.98 2.97 1.98 6 4 C4 6 4 6 1.375 6.125 C0.59125 6.08375 -0.1925 6.0425 -1 6 C-1.042721 4.33388095 -1.04063832 2.66617115 -1 1 C-0.67 0.67 -0.34 0.34 0 0 Z " fill="#E3E3E3" transform="translate(155,37)"/>
<path d="M0 0 C-0.33 0.99 -0.66 1.98 -1 3 C-4.375 3.125 -4.375 3.125 -8 3 C-8.66 2.34 -9.32 1.68 -10 1 C-3.71428571 -1.42857143 -3.71428571 -1.42857143 0 0 Z " fill="#DBDBDB" transform="translate(85,19)"/>
<path d="M0 0 C1.65 0 3.3 0 5 0 C4.43628586 3.26954202 3.50037734 4.82575883 1 7 C0 6 0 6 -0.0625 2.9375 C-0.041875 1.968125 -0.02125 0.99875 0 0 Z " fill="#E8E8E8" transform="translate(42,120)"/>
<path d="M0 0 C0.99 0 1.98 0 3 0 C3 2.31 3 4.62 3 7 C1.68 7 0.36 7 -1 7 C-0.67 4.69 -0.34 2.38 0 0 Z " fill="#EEEEEE" transform="translate(25,85)"/>
<path d="M0 0 C1.670625 0.061875 1.670625 0.061875 3.375 0.125 C3.375 1.445 3.375 2.765 3.375 4.125 C-1.08 3.135 -1.08 3.135 -5.625 2.125 C-3.625 0.125 -3.625 0.125 0 0 Z " fill="#DEDEDE" transform="translate(129.625,7.875)"/>
<path d="M0 0 C1.68762851 1.6454378 3.3540349 3.31288577 5 5 C5 5.33 5 5.66 5 6 C3.02 6 1.04 6 -1 6 C-1.042721 4.33388095 -1.04063832 2.66617115 -1 1 C-0.67 0.67 -0.34 0.34 0 0 Z " fill="#E3E3E3" transform="translate(162,44)"/>
<path d="M0 0 C0.66 0 1.32 0 2 0 C3.6875 2.375 3.6875 2.375 5 5 C4.67 5.66 4.34 6.32 4 7 C1.525 6.01 1.525 6.01 -1 5 C-0.67 3.35 -0.34 1.7 0 0 Z " fill="#DCDCDC" transform="translate(22,136)"/>
<path d="M0 0 C2.31 0.33 4.62 0.66 7 1 C7 1.99 7 2.98 7 4 C4.69 4 2.38 4 0 4 C0 2.68 0 1.36 0 0 Z " fill="#DEDEDE" transform="translate(119,18)"/>
<path d="M0 0 C2.31 0 4.62 0 7 0 C6.67 0.99 6.34 1.98 6 3 C2.9375 4.1875 2.9375 4.1875 0 5 C0 3.35 0 1.7 0 0 Z " fill="#E4E4E4" transform="translate(70,8)"/>
<path d="M0 0 C1.65 0 3.3 0 5 0 C5 0.99 5 1.98 5 3 C3.35 3.33 1.7 3.66 0 4 C0 2.68 0 1.36 0 0 Z " fill="#E7E7E7" transform="translate(56,106)"/>
<path d="M0 0 C0.99 0 1.98 0 3 0 C3 1.98 3 3.96 3 6 C2.01 5.67 1.02 5.34 0 5 C-0.75 3 -0.75 3 -1 1 C-0.67 0.67 -0.34 0.34 0 0 Z " fill="#E7E7E7" transform="translate(165,127)"/>
<path d="M0 0 C1.98 0 3.96 0 6 0 C4.35 1.65 2.7 3.3 1 5 C0.67 3.35 0.34 1.7 0 0 Z " fill="#E1E1E1" transform="translate(49,113)"/>
<path d="M0 0 C1.65 0.99 3.3 1.98 5 3 C4.67 3.66 4.34 4.32 4 5 C2.35 4.67 0.7 4.34 -1 4 C-0.67 2.68 -0.34 1.36 0 0 Z " fill="#E7E7E7" transform="translate(148,31)"/>
<path d="M0 0 C0.66 0.33 1.32 0.66 2 1 C2 2.98 2 4.96 2 7 C0.68 6.67 -0.64 6.34 -2 6 C-1.34 4.02 -0.68 2.04 0 0 Z " fill="#E8E8E8" transform="translate(187,120)"/>
<path d="M0 0 C2.31 0 4.62 0 7 0 C7.66 1.65 8.32 3.3 9 5 C4.545 3.02 4.545 3.02 0 1 C0 0.67 0 0.34 0 0 Z " fill="#D5D5D5" transform="translate(140,15)"/>
<path d="M0 0 C-0.33 0.66 -0.66 1.32 -1 2 C-3.31 2 -5.62 2 -8 2 C-8 1.34 -8 0.68 -8 0 C-4.71303767 -0.79953138 -3.28976808 -1.09658936 0 0 Z " fill="#FDFDFD" transform="translate(113,97)"/>
<path d="M0 0 C1.32 0 2.64 0 4 0 C3.67 2.31 3.34 4.62 3 7 C1.25372522 4.38058783 0.61277612 2.96175123 0 0 Z " fill="#EAEAEA" transform="translate(185,64)"/>
</svg>
